<?xml version="1.0" encoding="UTF-8"?>
<svg id="Layer_1" xmlns="http://www.w3.org/2000/svg" version="1.1" viewBox="0 0 480.12 132.71">
  <!-- Generator: Adobe Illustrator 29.5.1, SVG Export Plug-In . SVG Version: 2.1.0 Build 141)  -->
  <defs>
    <style>
      .st0 {
        fill: #3562ad;
      }

      .st1 {
        fill: gray;
      }

      .st2 {
        fill: #3764af;
      }

      .st3 {
        fill: #fff;
        stroke: #fff;
        stroke-miterlimit: 10;
        stroke-width: 39.05px;
      }
    </style>
  </defs>
  <rect class="st3" x="19.53" y="19.53" width="441.06" height="93.66" rx="46.83" ry="46.83"/>
  <g>
    <g>
      <path class="st0" d="M157.76,50.63c.2,1.73.42,3.51.65,5.31s.44,3.51.65,5.11c.2,1.6.39,2.97.56,4.09.05.41.14.88.29,1.42.14.54.26.95.36,1.24,0,.02,0,.04.02.05s.02.04.02.09c0,.24-.19.42-.57.56-.38.13-.78.2-1.18.2-.31,0-.6-.05-.86-.14-.26-.1-.41-.25-.43-.47-.02-.5-.05-.94-.07-1.31-.02-.37-.06-.82-.11-1.35-.12-1.08-.26-2.37-.43-3.89s-.34-3.14-.52-4.86-.36-3.43-.54-5.13c-.18-1.7-.34-3.28-.48-4.74-.72,1.48-1.44,3.01-2.17,4.58s-1.42,3.07-2.06,4.52c-.65,1.45-1.22,2.76-1.72,3.93s-.9,2.13-1.18,2.87-.43,1.18-.43,1.33c-.02.31-.24.56-.65.75s-.81.29-1.22.29c-.26,0-.5-.04-.72-.13-.22-.08-.35-.22-.39-.41-.12-.38-.26-.79-.41-1.22s-.27-.72-.34-.86c-.36-.84-.79-1.87-1.29-3.1s-1.04-2.56-1.62-3.98c-.57-1.42-1.14-2.84-1.7-4.25s-1.07-2.73-1.52-3.95c-.17,1.96-.36,4.03-.59,6.21s-.46,4.31-.7,6.39c-.24,2.08-.47,3.98-.68,5.71-.05.43-.08.85-.11,1.26-.02.41-.06.85-.11,1.33-.02.22-.21.38-.56.5-.35.12-.72.18-1.13.18-.33,0-.63-.05-.88-.14s-.38-.23-.38-.39v-.07c.19-.62.38-1.48.57-2.58.19-1.1.38-2.34.57-3.73.19-1.39.38-2.83.56-4.32.18-1.49.35-2.94.52-4.34.17-1.4.3-2.67.41-3.8s.2-2.05.27-2.73c.07-.68.11-1.03.11-1.06,0-.19,0-.35-.02-.48-.01-.13-.02-.26-.02-.38v-.18c0-.07.01-.13.04-.18.05-.29.3-.54.75-.75s.91-.32,1.36-.32c.33,0,.57.06.72.18.14.12.33.49.57,1.11.55,1.43,1.14,2.94,1.76,4.52.62,1.58,1.24,3.15,1.86,4.7.62,1.55,1.22,3.02,1.8,4.4.57,1.38,1.1,2.59,1.58,3.64.77-1.87,1.58-3.82,2.46-5.85.87-2.03,1.76-4.06,2.67-6.06.91-2.01,1.77-3.86,2.58-5.56.17-.33.32-.65.47-.95s.42-.45.82-.45c.26,0,.59.07.97.2.38.13.73.29,1.04.48.31.19.47.38.47.57,0,.24-.03.47-.09.7s-.09.5-.09.81v.25c.14,1.39.32,2.95.52,4.68Z"/>
      <path class="st0" d="M179.04,54.19c-.06.87-.11,1.79-.14,2.76-.04.97-.07,1.87-.09,2.71-.02.84-.04,1.47-.04,1.9,0,.33.02.83.05,1.49.04.66.14,1.36.32,2.1.18.74.47,1.44.88,2.08.05.1.07.17.07.22,0,.26-.16.58-.48.95-.32.37-.69.56-1.09.56-.36,0-.68-.26-.95-.77s-.49-1.14-.65-1.87c-.16-.73-.27-1.42-.34-2.06-.88,1.68-1.96,2.91-3.21,3.7-1.26.79-2.55,1.18-3.89,1.18-1.75,0-3.15-.59-4.2-1.78s-1.58-2.9-1.58-5.15c0-1.53.25-2.97.75-4.31.5-1.34,1.18-2.52,2.03-3.55.85-1.03,1.8-1.83,2.85-2.42,1.05-.59,2.13-.88,3.23-.88.84,0,1.6.19,2.3.56.69.37,1.24.97,1.65,1.81v-1.97c0-.24.25-.36.75-.36.41,0,.84.08,1.29.25s.68.39.68.68v.07c-.07.53-.14,1.23-.2,2.1ZM175.86,55.17c-.1,0-.18-.05-.25-.14-.41-.69-.88-1.18-1.42-1.47-.54-.29-1.08-.43-1.63-.43-.74,0-1.49.22-2.24.66s-1.45,1.06-2.08,1.87c-.63.8-1.14,1.75-1.52,2.83-.38,1.09-.57,2.27-.57,3.54,0,1.82.31,3.1.93,3.84s1.41,1.11,2.37,1.11c1.15,0,2.24-.38,3.27-1.13,1.03-.75,1.88-1.8,2.57-3.14s1.06-2.89,1.13-4.66c.02-.33.04-.8.04-1.4s.01-1.2.04-1.79c-.22.22-.42.32-.61.32Z"/>
      <path class="st0" d="M185.66,54.2c-.02-.5-.04-1.02-.05-1.54-.01-.53-.02-.92-.02-1.18,0-.24.24-.36.72-.36.38,0,.79.09,1.24.27.44.18.66.42.66.74,0,.24-.02.5-.05.79-.04.29-.05.63-.05,1.04.48-.79,1.16-1.47,2.05-2.04.88-.57,1.95-.86,3.19-.86.72,0,1.39.12,2.01.36s1.13.53,1.53.86c.39.34.59.65.59.93,0,.38-.14.79-.41,1.22-.28.43-.57.65-.88.65-.19,0-.36-.12-.5-.36-.24-.45-.62-.79-1.13-1s-.95-.32-1.31-.32c-1,0-1.93.31-2.78.93s-1.48,1.58-1.88,2.87c-.17.53-.29,1.11-.36,1.76-.07.65-.11,1.42-.13,2.33-.01.91-.02,2.05-.02,3.41,0,.74.03,1.46.09,2.15.06.69.09,1.24.09,1.65,0,.24-.24.36-.72.36-.38,0-.79-.09-1.24-.27s-.66-.42-.66-.74c0-.19,0-.51.02-.95s.02-.88.04-1.31c.01-.43.02-.73.02-.9v-9.37c0-.24-.01-.61-.04-1.11Z"/>
      <path class="st0" d="M203.74,46.83c-.31.32-.74.48-1.29.48-.45,0-.87-.23-1.24-.7-.37-.47-.56-.95-.56-1.45s.15-.88.45-1.22c.3-.33.75-.5,1.34-.5.43,0,.83.24,1.2.72.37.48.56.98.56,1.51,0,.45-.16.84-.47,1.17ZM201.2,54.17c-.02-.5-.04-1.02-.05-1.54-.01-.53-.02-.92-.02-1.18,0-.22.23-.32.68-.32.41,0,.84.09,1.29.27.45.18.68.41.68.7,0,.19,0,.48-.02.88-.01.39-.02.81-.04,1.24s-.02.79-.02,1.08v9.44c0,.14.01.47.04.97.02.5.04,1.03.05,1.58s.02.97.02,1.26c0,.22-.23.32-.68.32-.38,0-.81-.09-1.27-.27-.47-.18-.7-.41-.7-.7,0-.19,0-.51.02-.95.01-.44.02-.88.04-1.31s.02-.73.02-.9v-9.44c0-.24-.01-.61-.04-1.11Z"/>
      <path class="st0" d="M222.58,66.91c0-.45,0-.93.02-1.42s.02-.87.02-1.13v-6.39c0-1.41-.19-2.54-.57-3.39-.38-.85-1.17-1.27-2.37-1.27-.81,0-1.63.16-2.46.47-.82.31-1.57.82-2.24,1.54-.67.72-1.18,1.68-1.54,2.87-.17.6-.29,1.3-.38,2.1-.08.8-.13,1.6-.14,2.39-.01.79-.03,1.47-.05,2.05v.57c0,.57.01,1.14.04,1.69.02.55.05,1.06.07,1.54,0,.24-.23.36-.68.36-.38,0-.79-.09-1.22-.27s-.65-.42-.65-.74c0-.19,0-.54.02-1.04.01-.5.02-1,.04-1.49.01-.49.02-.82.02-.99v-8.93c0-.24-.01-.61-.04-1.11-.02-.5-.04-1.02-.05-1.54-.01-.53-.02-.92-.02-1.18,0-.24.23-.36.68-.36.38,0,.79.09,1.22.27.43.18.65.42.65.74-.02.67-.04,1.22-.05,1.65-.01.43-.02.8-.02,1.11.77-1.27,1.76-2.24,3-2.91s2.51-1,3.82-1c1.15,0,2.07.21,2.78.63.71.42,1.24.96,1.61,1.63.37.67.62,1.4.74,2.19.12.79.18,1.56.18,2.3v6.89c0,.14.01.47.04.97.02.5.04,1.03.05,1.58s.02.97.02,1.26c0,.24-.23.36-.68.36-.38,0-.79-.09-1.22-.27-.43-.18-.65-.41-.65-.7v-.04c.02-.19.04-.51.04-.97Z"/>
      <path class="st0" d="M232.85,61.81c0,1.55.4,2.81,1.2,3.77s1.8,1.43,3,1.43c1.53,0,2.94-.25,4.22-.74s2.4-1.25,3.35-2.28c.17-.19.32-.33.47-.41.14-.08.26-.13.36-.13.24,0,.36.14.36.43,0,.22-.17.6-.52,1.15-.35.55-.88,1.14-1.6,1.78-.72.63-1.63,1.18-2.73,1.63-1.1.45-2.41.68-3.91.68-1.22,0-2.33-.31-3.32-.92-.99-.61-1.78-1.49-2.35-2.64-.57-1.15-.86-2.51-.86-4.09v-.5c-.22-.17-.39-.36-.54-.57-.14-.22-.22-.41-.22-.57,0-.31.23-.47.68-.47.02,0,.08,0,.16-.02.08-.01.14-.02.16-.02.17-.86.51-1.77,1.02-2.73.51-.96,1.17-1.86,1.96-2.71s1.69-1.54,2.71-2.06c1.02-.53,2.11-.79,3.28-.79,1.48,0,2.66.26,3.53.77s1.49,1.17,1.86,1.97c.37.8.56,1.63.56,2.49,0,.81-.07,1.46-.2,1.94-.13.48-.44.87-.91,1.17-.48.3-1.26.62-2.33.95-1.08.33-2.36.6-3.86.81-1.5.2-3.19.3-5.08.3h-.47v.36ZM238.3,59.14c1.2-.2,2.19-.41,2.98-.63.86-.26,1.42-.55,1.67-.86.25-.31.38-.78.38-1.4,0-2.08-1.21-3.12-3.62-3.12-.89,0-1.7.2-2.44.61-.74.41-1.39.93-1.95,1.58-.56.65-1.03,1.33-1.4,2.06-.37.73-.63,1.42-.77,2.06h.72c1.77,0,3.25-.1,4.45-.3Z"/>
      <path class="st0" d="M284.03,63.08c-.32.56-.79,1.18-1.42,1.86-.62.68-1.39,1.34-2.31,1.97-.92.63-1.98,1.16-3.17,1.58-1.2.42-2.53.63-3.98.63-2.08,0-3.96-.38-5.62-1.15-1.66-.77-2.97-1.97-3.93-3.61-.96-1.64-1.43-3.77-1.43-6.41,0-2.1.32-4.07.97-5.9.65-1.83,1.55-3.43,2.71-4.81,1.16-1.37,2.52-2.45,4.07-3.21,1.55-.77,3.24-1.15,5.06-1.15.33,0,.82.02,1.45.07.63.05,1.33.17,2.1.36.77.19,1.53.5,2.3.92.77.42,1.45.99,2.05,1.7.07.1.11.23.11.39,0,.33-.16.71-.47,1.11-.31.41-.63.61-.97.61-.22,0-.39-.11-.54-.32-.41-.62-.92-1.11-1.54-1.45-.62-.35-1.25-.6-1.88-.75s-1.2-.25-1.7-.29c-.5-.04-.85-.05-1.04-.05-1.34,0-2.61.3-3.82.91-1.21.61-2.28,1.48-3.23,2.62s-1.69,2.48-2.22,4.04c-.54,1.55-.81,3.26-.81,5.13,0,2.08.36,3.78,1.09,5.1.73,1.31,1.74,2.29,3.03,2.92,1.29.63,2.79.95,4.49.95,1.1,0,2.26-.21,3.48-.63,1.22-.42,2.39-1.01,3.52-1.78,1.12-.77,2.06-1.64,2.8-2.62.29-.36.57-.54.86-.54.33,0,.5.19.5.57,0,.24-.16.64-.48,1.2Z"/>
      <path class="st0" d="M287.82,74.23c-.57-.1-1.14-.37-1.69-.82-.12-.12-.18-.27-.18-.47,0-.33.12-.71.36-1.13.24-.42.51-.63.82-.63.17,0,.32.08.47.25.31.31.65.5,1,.57.36.07.69.11,1,.11.38,0,.76-.14,1.13-.43.37-.29.72-.8,1.06-1.54l1.58-3.3-5.24-11.88c-.17-.36-.4-.84-.7-1.44-.3-.6-.56-1.09-.77-1.47-.05-.1-.07-.17-.07-.22,0-.19.15-.33.45-.43s.63-.14.99-.14c.33,0,.64.04.92.11.27.07.44.19.48.36.17.43.34.87.52,1.31.18.44.36.89.56,1.35l4.16,9.65,4.41-9.29c.24-.48.47-1.02.7-1.61.23-.6.42-1.17.59-1.72.07-.22.27-.32.61-.32.36,0,.74.13,1.15.39.41.26.61.59.61.97,0,.14-.04.29-.11.43-.19.36-.42.78-.68,1.27-.26.49-.5.95-.72,1.38l-7.57,15.9c-.48,1-1.02,1.75-1.63,2.22s-1.38.72-2.31.72h-.36c-.45,0-.97-.05-1.54-.14Z"/>
      <path class="st0" d="M307.38,53.27c-.53,0-.93.02-1.22.05-.29.04-.61.07-.97.09h-.04c-.31,0-.57-.18-.79-.54-.22-.36-.32-.69-.32-1.01,0-.33.13-.5.39-.5h3.12v-1.83c0-.24,0-.61-.02-1.11-.01-.5-.02-1.02-.04-1.54-.01-.53-.02-.92-.02-1.18,0-.12.07-.21.22-.27s.31-.09.5-.09c.38,0,.79.09,1.22.27.43.18.65.43.65.74,0,.19,0,.48-.02.88-.01.39-.02.81-.04,1.24-.01.43-.02.79-.02,1.08v1.72l1-.04c.43-.02.93-.06,1.51-.11.57-.05.98-.08,1.22-.11h.04c.31,0,.58.18.81.54.23.36.34.69.34,1,0,.36-.14.54-.43.54h-1.36c-.67,0-1.24.01-1.72.04l-1.4.04v11.45c0,.96.08,1.57.25,1.83.17.26.51.39,1.04.39.41,0,.91-.13,1.52-.39.61-.26,1.21-.62,1.81-1.08.41-.31.73-.47.97-.47s.36.13.36.39c0,.22-.15.53-.45.95-.3.42-.69.85-1.18,1.29-.49.44-1.03.82-1.61,1.13-.59.31-1.17.47-1.74.47-1.24,0-2.12-.38-2.64-1.15s-.77-1.91-.77-3.45v-11.27h-.18Z"/>
      <path class="st0" d="M325.11,51.51c.67-.31,1.51-.47,2.51-.47,1.36,0,2.57.35,3.63,1.04,1.05.69,1.87,1.68,2.46,2.96.59,1.28.88,2.83.88,4.65,0,1.15-.19,2.28-.56,3.39-.37,1.11-.92,2.13-1.65,3.05-.73.92-1.63,1.65-2.69,2.19-1.06.54-2.29.81-3.68.81-2.39,0-4.25-.72-5.58-2.17-1.33-1.45-1.99-3.42-1.99-5.9,0-1.05.17-2.1.52-3.14.35-1.04.77-1.99,1.26-2.85.49-.86.97-1.56,1.45-2.08.48-.53.85-.79,1.11-.79.24,0,.44.11.61.32.48-.36,1.05-.69,1.72-1ZM329.14,65.99c.92-.63,1.66-1.5,2.21-2.6.55-1.1.82-2.33.82-3.7,0-1.98-.39-3.56-1.17-4.74-.78-1.17-1.98-1.76-3.61-1.76-.96,0-1.83.23-2.64.68-.8.45-1.5,1.06-2.08,1.83-.59.77-1.04,1.61-1.36,2.53-.32.92-.48,1.85-.48,2.78,0,1.96.45,3.44,1.35,4.43.9.99,2.17,1.49,3.82,1.49,1.17,0,2.22-.32,3.14-.95Z"/>
      <path class="st0" d="M359.48,54.51c-.48-.87-1.24-1.31-2.3-1.31-.72,0-1.45.26-2.21.79s-1.39,1.22-1.9,2.08c-.51.86-.77,1.79-.77,2.8v5.85c0,.67.03,1.37.09,2.1s.09,1.3.09,1.7c0,.12-.07.21-.22.27s-.31.09-.5.09c-.38,0-.79-.09-1.22-.27-.43-.18-.65-.42-.65-.74,0-.19.01-.48.04-.88s.05-.81.07-1.24c.02-.43.04-.78.04-1.04v-6.75c0-1.41-.2-2.56-.59-3.45-.39-.88-1.08-1.33-2.06-1.33-.5,0-1.04.12-1.61.36-.57.24-1.12.68-1.65,1.31s-.97,1.55-1.33,2.74c-.29.96-.45,2.08-.48,3.36-.04,1.28-.07,2.53-.09,3.75,0,.74.03,1.46.09,2.15s.09,1.24.09,1.65c0,.24-.24.36-.72.36-.38,0-.8-.09-1.24-.27-.44-.18-.66-.42-.66-.74,0-.19,0-.51.02-.95.01-.44.02-.88.04-1.31.01-.43.02-.73.02-.9v-9.01c0-.24-.01-.63-.04-1.18-.02-.55-.04-1.12-.05-1.7-.01-.59-.02-1.01-.02-1.27,0-.24.24-.36.72-.36.38,0,.79.09,1.24.27.44.18.66.43.66.74,0,.24,0,.52-.02.84-.01.32-.02.72-.02,1.2.48-.98,1.18-1.76,2.1-2.33s1.91-.86,2.96-.86c1.34,0,2.36.33,3.05,1,.69.67,1.15,1.45,1.36,2.33.62-1.1,1.43-1.93,2.44-2.49s2.02-.84,3.05-.84c1.24,0,2.26.33,3.03.99.78.66,1.34,1.51,1.7,2.55.36,1.04.54,2.12.54,3.25v6.89c0,.14,0,.47.02.97.01.5.03,1.03.05,1.58s.04.97.04,1.26c0,.24-.24.36-.72.36-.38,0-.79-.09-1.24-.27s-.66-.42-.66-.74c0-.19.01-.48.04-.88.02-.39.05-.81.07-1.24.02-.43.04-.78.04-1.04v-6.75c0-1.43-.24-2.59-.72-3.46Z"/>
      <path class="st0" d="M370.43,61.81c0,1.55.4,2.81,1.2,3.77.8.96,1.8,1.43,2.99,1.43,1.53,0,2.94-.25,4.22-.74s2.4-1.25,3.35-2.28c.17-.19.32-.33.47-.41.14-.08.26-.13.36-.13.24,0,.36.14.36.43,0,.22-.17.6-.52,1.15-.35.55-.88,1.14-1.6,1.78-.72.63-1.63,1.18-2.73,1.63-1.1.45-2.4.68-3.91.68-1.22,0-2.33-.31-3.32-.92-.99-.61-1.78-1.49-2.35-2.64-.57-1.15-.86-2.51-.86-4.09v-.5c-.22-.17-.39-.36-.54-.57-.14-.22-.22-.41-.22-.57,0-.31.23-.47.68-.47.02,0,.08,0,.16-.02s.14-.02.16-.02c.17-.86.51-1.77,1.02-2.73.51-.96,1.17-1.86,1.95-2.71.79-.85,1.69-1.54,2.71-2.06,1.02-.53,2.11-.79,3.28-.79,1.48,0,2.66.26,3.53.77s1.49,1.17,1.86,1.97c.37.8.56,1.63.56,2.49,0,.81-.07,1.46-.2,1.94-.13.48-.44.87-.91,1.17-.48.3-1.26.62-2.33.95-1.08.33-2.36.6-3.86.81-1.49.2-3.19.3-5.08.3h-.47v.36ZM375.88,59.14c1.2-.2,2.19-.41,2.98-.63.86-.26,1.42-.55,1.67-.86.25-.31.38-.78.38-1.4,0-2.08-1.21-3.12-3.62-3.12-.89,0-1.7.2-2.44.61-.74.41-1.39.93-1.95,1.58-.56.65-1.03,1.33-1.4,2.06-.37.73-.63,1.42-.77,2.06h.72c1.77,0,3.25-.1,4.45-.3Z"/>
      <path class="st0" d="M389.23,53.27c-.53,0-.93.02-1.22.05-.29.04-.61.07-.97.09h-.04c-.31,0-.57-.18-.79-.54-.22-.36-.32-.69-.32-1.01,0-.33.13-.5.39-.5h3.12v-1.83c0-.24,0-.61-.02-1.11-.01-.5-.02-1.02-.04-1.54-.01-.53-.02-.92-.02-1.18,0-.12.07-.21.22-.27s.31-.09.5-.09c.38,0,.79.09,1.22.27.43.18.65.43.65.74,0,.19,0,.48-.02.88-.01.39-.02.81-.04,1.24-.01.43-.02.79-.02,1.08v1.72l1-.04c.43-.02.93-.06,1.51-.11.57-.05.98-.08,1.22-.11h.04c.31,0,.58.18.81.54.23.36.34.69.34,1,0,.36-.14.54-.43.54h-1.36c-.67,0-1.24.01-1.72.04l-1.4.04v11.45c0,.96.08,1.57.25,1.83.17.26.51.39,1.04.39.41,0,.91-.13,1.52-.39.61-.26,1.21-.62,1.81-1.08.41-.31.73-.47.97-.47s.36.13.36.39c0,.22-.15.53-.45.95-.3.42-.69.85-1.18,1.29-.49.44-1.03.82-1.61,1.13-.59.31-1.17.47-1.74.47-1.24,0-2.12-.38-2.64-1.15s-.77-1.91-.77-3.45v-11.27h-.18Z"/>
      <path class="st0" d="M401.61,54.2c-.02-.5-.04-1.02-.05-1.54-.01-.53-.02-.92-.02-1.18,0-.24.24-.36.72-.36.38,0,.79.09,1.24.27.44.18.66.42.66.74,0,.24-.02.5-.05.79s-.05.63-.05,1.04c.48-.79,1.16-1.47,2.04-2.04s1.95-.86,3.2-.86c.72,0,1.39.12,2.01.36.62.24,1.13.53,1.52.86.39.34.59.65.59.93,0,.38-.14.79-.41,1.22-.27.43-.57.65-.88.65-.19,0-.36-.12-.5-.36-.24-.45-.62-.79-1.13-1s-.95-.32-1.31-.32c-1,0-1.93.31-2.78.93s-1.48,1.58-1.88,2.87c-.17.53-.29,1.11-.36,1.76-.07.65-.11,1.42-.13,2.33-.01.91-.02,2.05-.02,3.41,0,.74.03,1.46.09,2.15.06.69.09,1.24.09,1.65,0,.24-.24.36-.72.36-.38,0-.79-.09-1.24-.27-.44-.18-.66-.42-.66-.74,0-.19,0-.51.02-.95.01-.44.02-.88.04-1.31.01-.43.02-.73.02-.9v-9.37c0-.24-.01-.61-.04-1.11Z"/>
      <path class="st0" d="M415.96,74.23c-.57-.1-1.14-.37-1.69-.82-.12-.12-.18-.27-.18-.47,0-.33.12-.71.36-1.13s.51-.63.82-.63c.17,0,.32.08.47.25.31.31.65.5,1,.57.36.07.69.11,1,.11.38,0,.76-.14,1.13-.43.37-.29.72-.8,1.06-1.54l1.58-3.3-5.24-11.88c-.17-.36-.4-.84-.7-1.44-.3-.6-.56-1.09-.77-1.47-.05-.1-.07-.17-.07-.22,0-.19.15-.33.45-.43s.63-.14.99-.14c.33,0,.64.04.92.11.27.07.44.19.48.36.17.43.34.87.52,1.31.18.44.36.89.56,1.35l4.16,9.65,4.41-9.29c.24-.48.47-1.02.7-1.61.23-.6.42-1.17.59-1.72.07-.22.27-.32.61-.32.36,0,.74.13,1.15.39.41.26.61.59.61.97,0,.14-.04.29-.11.43-.19.36-.42.78-.68,1.27-.26.49-.5.95-.72,1.38l-7.57,15.9c-.48,1-1.02,1.75-1.63,2.22s-1.38.72-2.31.72h-.36c-.45,0-.97-.05-1.54-.14Z"/>
    </g>
    <g>
      <path class="st1" d="M316.71,91.63c-.32-.05-.52-.11-.6-.18s-.13-.13-.13-.18c0-.11.07-.2.23-.26.15-.06.42-.09.81-.09v-11.15c-.17-.04-.35-.15-.51-.33s-.24-.34-.24-.48c0-.11.04-.19.13-.23.19-.08.45-.15.8-.22.35-.07.73-.13,1.15-.19.42-.06.84-.1,1.26-.13.42-.03.79-.05,1.12-.05.94,0,1.83.16,2.66.47.84.32,1.58.76,2.22,1.35.65.58,1.15,1.28,1.52,2.11.37.82.56,1.74.56,2.76s-.16,1.91-.49,2.68c-.33.77-.76,1.43-1.3,1.96s-1.14.96-1.81,1.27c-.67.31-1.34.53-2.03.66-.64.11-1.26.19-1.85.23s-1.17.06-1.75.07h-.26c-.68,0-1.17-.02-1.49-.07ZM322.88,89.95c1.18-.53,2.06-1.24,2.63-2.13.56-.89.85-1.89.85-3.01,0-.88-.17-1.66-.5-2.34-.33-.69-.78-1.26-1.33-1.73s-1.17-.83-1.85-1.07-1.36-.37-2.05-.37c-.8,0-1.57.1-2.3.3v11.2c1.85-.04,3.36-.32,4.55-.85Z"/>
      <path class="st1" d="M337.82,84.05c-.03.46-.06.94-.07,1.45-.02.51-.04.98-.05,1.42-.01.44-.02.77-.02,1,0,.18.01.44.03.78s.07.71.17,1.1.25.75.46,1.09c.03.05.04.09.04.11,0,.14-.08.3-.25.5-.17.19-.36.29-.57.29-.19,0-.35-.14-.5-.41s-.26-.6-.34-.98c-.08-.38-.14-.75-.18-1.08-.46.88-1.03,1.52-1.69,1.94s-1.34.62-2.04.62c-.92,0-1.65-.31-2.2-.93s-.83-1.52-.83-2.7c0-.8.13-1.56.4-2.26.26-.71.62-1.33,1.06-1.86.45-.54.94-.96,1.5-1.27s1.12-.46,1.7-.46c.44,0,.84.1,1.2.29.36.19.65.51.87.95v-1.03c0-.13.13-.19.39-.19.21,0,.44.05.68.13.24.09.36.21.36.36v.04c-.04.28-.07.64-.1,1.1ZM336.16,84.57s-.09-.02-.13-.08c-.22-.36-.46-.62-.75-.77-.28-.15-.57-.23-.85-.23-.39,0-.78.11-1.18.35-.39.23-.76.56-1.09.98-.33.42-.6.92-.8,1.49-.2.57-.3,1.19-.3,1.85,0,.95.16,1.63.49,2.01.32.39.74.58,1.24.58.6,0,1.17-.2,1.71-.59.54-.4.99-.94,1.35-1.65.36-.7.56-1.52.59-2.45.01-.17.02-.42.02-.74s0-.63.02-.94c-.11.11-.22.17-.32.17Z"/>
      <path class="st1" d="M341.3,84.06c-.01-.26-.02-.53-.03-.81,0-.28-.01-.48-.01-.62,0-.13.13-.19.38-.19.2,0,.42.05.65.14.23.1.35.22.35.39,0,.13,0,.26-.03.41s-.03.33-.03.55c.25-.41.61-.77,1.07-1.08.46-.3,1.02-.45,1.67-.45.38,0,.73.07,1.06.19s.59.27.8.45c.21.17.31.34.31.49,0,.2-.07.42-.22.64s-.3.34-.46.34c-.1,0-.19-.06-.26-.19-.13-.24-.32-.41-.59-.53-.27-.11-.5-.17-.69-.17-.53,0-1.02.16-1.46.49-.45.33-.78.83-.99,1.51-.09.28-.15.59-.19.92-.04.34-.06.75-.07,1.23s0,1.07,0,1.79c0,.39.01.77.05,1.13.03.36.05.65.05.87,0,.13-.13.19-.38.19-.2,0-.42-.05-.65-.14-.23-.09-.35-.22-.35-.39,0-.1,0-.26.01-.5,0-.23.01-.46.02-.69,0-.23,0-.38,0-.47v-4.91c0-.13,0-.32-.02-.59Z"/>
      <path class="st1" d="M349.36,79.86c-.01-.26-.02-.53-.03-.81,0-.27,0-.48,0-.62,0-.13.13-.19.38-.19.2,0,.42.05.65.14.23.09.35.22.35.39,0,.1,0,.25-.02.46-.01.21-.03.42-.04.65-.01.23-.02.41-.02.56v5.2l3.54-2.45c.16-.11.31-.23.44-.36.13-.13.23-.23.31-.3.05-.06.15-.1.3-.1s.31.03.49.1c.18.06.33.14.45.23.13.1.19.19.19.27,0,.05-.03.09-.1.13-.26.18-.52.33-.77.48-.25.15-.46.27-.62.39l-2.86,2c.36.35.79.79,1.27,1.3.48.51.97,1.03,1.48,1.54.5.51.95.97,1.34,1.37.14.13.3.26.49.39.19.14.38.25.58.34.06.03.1.07.1.13,0,.09-.06.19-.18.29s-.26.2-.42.28-.31.12-.45.12c-.09,0-.15-.02-.19-.06-.16-.13-.33-.26-.51-.41-.17-.15-.33-.29-.47-.43-.25-.26-.54-.58-.88-.94-.34-.36-.69-.75-1.05-1.15-.36-.4-.72-.79-1.07-1.16s-.67-.69-.94-.97l-.45.28v2.58c0,.07,0,.25.03.51.02.26.04.54.05.83.01.29.02.51.02.66,0,.13-.13.19-.38.19-.2,0-.42-.05-.65-.14-.23-.09-.35-.22-.35-.39,0-.1,0-.26,0-.5,0-.23.01-.46.02-.69,0-.23,0-.38,0-.47v-9.11c0-.13,0-.32-.02-.58Z"/>
      <path class="st1" d="M371.67,84.83c-.2,0-.39,0-.56.02l-3.96.23v4.46c0,.15,0,.36.02.62.01.26.02.52.03.77,0,.25,0,.45,0,.6,0,.13-.13.19-.39.19-.2,0-.42-.05-.66-.14-.24-.09-.36-.22-.36-.38,0-.1,0-.26.01-.46,0-.21.01-.42.02-.65,0-.23,0-.41,0-.56v-4.44c-.14-.08-.26-.22-.36-.42-.1-.2-.15-.37-.15-.51s.05-.21.15-.21h.04s.1.02.16.03c.06,0,.11,0,.16,0v-4.38c0-.18-.01-.35-.04-.5-.01-.11-.02-.2-.03-.27,0-.07,0-.13,0-.18,0-.13.03-.2.09-.23s.12-.04.17-.04c.18,0,.38.04.62.11.24.07.36.12.38.13l5.1-.34c.29-.03.59-.06.91-.1.32-.04.54-.06.65-.06.18,0,.33.11.45.33.13.22.19.42.19.61,0,.22-.08.32-.25.32h-1.37c-.2,0-.39,0-.57.02l-4.99.34v4.2l3.94-.25c.29-.03.59-.06.91-.1.32-.04.54-.06.65-.06.18,0,.33.11.45.33.13.22.19.42.19.61,0,.22-.08.32-.25.32h-1.37Z"/>
      <path class="st1" d="M377.94,80.19c-.16.17-.39.25-.68.25-.24,0-.45-.12-.65-.37-.19-.25-.29-.5-.29-.76,0-.25.08-.46.24-.64.16-.18.39-.26.71-.26.23,0,.44.13.63.38.19.25.29.52.29.79,0,.24-.08.44-.25.61ZM376.61,84.04c-.01-.26-.02-.53-.03-.81,0-.28-.01-.48-.01-.62,0-.11.12-.17.36-.17.21,0,.44.05.68.14.24.1.36.22.36.37,0,.1,0,.25,0,.46,0,.21-.01.42-.02.65,0,.23-.01.41-.01.57v4.95c0,.07,0,.25.02.51.01.26.02.54.03.83,0,.29.01.51.01.66,0,.11-.12.17-.36.17-.2,0-.42-.05-.67-.14-.25-.09-.37-.22-.37-.37,0-.1,0-.26.01-.5,0-.23.01-.46.02-.69,0-.23.01-.38.01-.47v-4.95c0-.13,0-.32-.02-.59Z"/>
      <path class="st1" d="M382.14,88.05c0,.82.21,1.48.63,1.98.42.5.94.75,1.57.75.8,0,1.54-.13,2.21-.38.67-.26,1.26-.66,1.76-1.2.09-.1.17-.17.25-.22s.14-.07.19-.07c.13,0,.19.07.19.23,0,.11-.09.31-.27.6s-.46.6-.84.93c-.38.33-.85.62-1.43.86-.58.24-1.26.36-2.05.36-.64,0-1.22-.16-1.74-.48-.52-.32-.93-.78-1.23-1.38-.3-.6-.45-1.32-.45-2.15v-.26c-.11-.09-.21-.19-.28-.3-.08-.11-.11-.22-.11-.3,0-.16.12-.25.36-.25.01,0,.04,0,.08,0,.04,0,.07-.01.08-.01.09-.45.27-.93.54-1.43.27-.5.61-.98,1.03-1.42.42-.44.89-.81,1.42-1.08.53-.28,1.11-.42,1.72-.42.78,0,1.4.14,1.86.41.46.27.78.62.98,1.04.2.42.29.85.29,1.31,0,.43-.04.77-.1,1.02-.07.25-.23.45-.48.61-.25.16-.66.32-1.22.5-.57.18-1.24.32-2.03.42-.78.11-1.67.16-2.67.16h-.25v.19ZM385,86.65c.63-.11,1.15-.22,1.56-.33.45-.14.74-.29.87-.45.13-.16.2-.41.2-.74,0-1.09-.63-1.64-1.9-1.64-.47,0-.89.11-1.28.32-.39.22-.73.49-1.03.83-.29.34-.54.7-.74,1.08-.19.38-.33.74-.4,1.08h.38c.93,0,1.71-.05,2.34-.16Z"/>
      <path class="st1" d="M391.78,79.86c-.01-.26-.02-.53-.03-.81,0-.27-.01-.48-.01-.62,0-.06.04-.11.11-.14.07-.03.16-.05.26-.05.21,0,.44.05.67.14.23.09.35.22.35.39,0,.1,0,.25,0,.46,0,.21-.01.42-.02.65,0,.23-.01.41-.01.56v9.13c0,.07,0,.25.02.51.01.26.02.54.03.83,0,.29.01.51.01.66,0,.06-.04.11-.11.14-.07.03-.16.05-.26.05-.2,0-.42-.05-.66-.14-.24-.09-.36-.22-.36-.39,0-.1,0-.26.01-.5,0-.23.01-.46.02-.69,0-.23.01-.38.01-.47v-9.13c0-.13,0-.32-.02-.58Z"/>
      <path class="st1" d="M402.74,79.26c-.02-.36-.04-.65-.04-.87,0-.06.04-.11.11-.14.08-.03.16-.05.26-.05.2,0,.41.05.64.14s.34.22.34.39c0,.15,0,.39-.02.71-.01.32-.02.64-.02.97v7.66c0,.54.06,1.07.17,1.59.11.52.27.91.47,1.16.02.05.04.1.04.13,0,.15-.09.33-.26.53-.18.2-.36.3-.57.3-.15,0-.29-.1-.41-.29-.13-.2-.23-.43-.32-.71-.09-.27-.16-.55-.22-.82-.06-.27-.08-.48-.08-.63-.54.9-1.12,1.56-1.73,1.96-.62.4-1.29.6-2.03.6-.92,0-1.66-.33-2.23-1s-.86-1.61-.86-2.84c0-.74.13-1.45.39-2.13.26-.68.61-1.28,1.05-1.81s.94-.94,1.5-1.25,1.15-.46,1.76-.46c.48,0,.9.09,1.26.27s.65.42.85.71v-2.99c0-.39-.01-.77-.04-1.13ZM402.59,84.45c-.06,0-.12-.03-.17-.09-.19-.26-.44-.47-.76-.63-.32-.16-.65-.23-.97-.23-.47,0-.9.13-1.32.38-.41.26-.78.61-1.09,1.05-.31.44-.56.92-.74,1.45s-.27,1.07-.27,1.62c0,.91.17,1.61.5,2.07.33.46.77.69,1.31.69.39,0,.8-.11,1.23-.35.43-.23.84-.55,1.21-.96s.68-.88.91-1.4c.23-.53.35-1.09.35-1.69v-1.98s-.11.07-.19.07Z"/>
      <path class="st1" d="M420.18,84.83c-.2,0-.39,0-.56.02l-3.96.23v4.46c0,.15,0,.36.02.62.01.26.02.52.03.77,0,.25,0,.45,0,.6,0,.13-.13.19-.39.19-.2,0-.42-.05-.66-.14-.24-.09-.36-.22-.36-.38,0-.1,0-.26.01-.46,0-.21.01-.42.02-.65,0-.23,0-.41,0-.56v-4.44c-.14-.08-.26-.22-.36-.42-.1-.2-.15-.37-.15-.51s.05-.21.15-.21h.04s.1.02.16.03c.06,0,.11,0,.16,0v-4.38c0-.18-.01-.35-.04-.5-.01-.11-.02-.2-.03-.27,0-.07,0-.13,0-.18,0-.13.03-.2.09-.23s.12-.04.17-.04c.18,0,.38.04.62.11.24.07.36.12.38.13l5.1-.34c.29-.03.59-.06.91-.1.32-.04.54-.06.65-.06.18,0,.33.11.45.33.13.22.19.42.19.61,0,.22-.08.32-.25.32h-1.37c-.2,0-.39,0-.57.02l-4.99.34v4.2l3.94-.25c.29-.03.59-.06.91-.1.32-.04.54-.06.65-.06.18,0,.33.11.45.33.13.22.19.42.19.61,0,.22-.08.32-.25.32h-1.37Z"/>
      <path class="st1" d="M425.11,79.86c-.01-.26-.02-.53-.03-.81,0-.27-.01-.48-.01-.62,0-.06.04-.11.11-.14.07-.03.16-.05.26-.05.21,0,.44.05.67.14.23.09.35.22.35.39,0,.1,0,.25,0,.46,0,.21-.01.42-.02.65,0,.23-.01.41-.01.56v9.13c0,.07,0,.25.02.51.01.26.02.54.03.83,0,.29.01.51.01.66,0,.06-.04.11-.11.14-.07.03-.16.05-.26.05-.2,0-.42-.05-.66-.14-.24-.09-.36-.22-.36-.39,0-.1,0-.26.01-.5,0-.23.01-.46.02-.69,0-.23.01-.38.01-.47v-9.13c0-.13,0-.32-.02-.58Z"/>
      <path class="st1" d="M432.81,82.65c.35-.16.79-.25,1.32-.25.72,0,1.35.18,1.9.55.55.36.98.88,1.29,1.55.31.67.46,1.48.46,2.44,0,.6-.1,1.2-.29,1.78-.2.58-.48,1.12-.87,1.6-.38.48-.85.87-1.41,1.15-.56.28-1.2.42-1.93.42-1.26,0-2.23-.38-2.93-1.14s-1.05-1.79-1.05-3.1c0-.55.09-1.1.27-1.65.18-.55.4-1.05.66-1.5.26-.45.51-.82.76-1.09s.44-.41.58-.41c.13,0,.23.06.32.17.25-.19.55-.36.9-.53ZM434.93,90.24c.48-.33.87-.79,1.16-1.36s.43-1.23.43-1.94c0-1.04-.2-1.87-.61-2.49-.41-.61-1.04-.92-1.89-.92-.5,0-.96.12-1.39.36-.42.24-.78.56-1.09.96-.31.4-.55.84-.72,1.33-.17.48-.25.97-.25,1.46,0,1.03.23,1.8.71,2.33.47.52,1.14.78,2.01.78.62,0,1.16-.17,1.65-.5Z"/>
      <path class="st1" d="M450.59,83.31c.05-.23.1-.45.15-.68.04-.14.18-.21.42-.21.21,0,.42.05.64.14.21.1.32.21.32.35,0,.04,0,.07-.02.1-.09.2-.18.42-.27.66s-.17.44-.23.6l-2.13,6.06c-.05.15-.1.32-.16.52-.06.19-.11.4-.18.61-.05.16-.13.28-.23.34-.1.06-.22.1-.36.1-.16,0-.33-.04-.5-.11s-.29-.16-.37-.25c-.1-.1-.16-.23-.19-.38-.03-.15-.06-.31-.11-.47l-1.71-6.04-1.94,5.68c-.07.22-.13.41-.18.57-.04.17-.1.36-.16.56-.05.16-.13.28-.23.34s-.22.1-.34.1c-.15,0-.3-.04-.46-.11s-.27-.16-.35-.25c-.1-.1-.16-.21-.19-.32-.02-.11-.08-.29-.15-.53l-1.92-6.65c-.05-.14-.11-.31-.19-.52s-.15-.41-.23-.59c-.01-.01-.02-.04-.02-.08,0-.1.07-.17.2-.23.13-.05.28-.07.46-.07.19,0,.37.03.56.09.18.07.28.16.29.3.02.13.05.28.08.45.02.18.06.33.1.47l1.62,6.1,2.03-5.84c.06-.19.1-.38.12-.57.02-.2.04-.39.07-.59.01-.08.07-.13.16-.17.1-.04.2-.06.33-.06.25,0,.51.04.76.13.26.09.39.19.41.3.02.14.04.27.06.41.01.13.04.26.08.39l1.79,6.01,2.01-6.06c.06-.18.12-.38.17-.6Z"/>
    </g>
    <g>
      <path class="st2" d="M104.46,94.06c5.73-7.8,9.13-17.43,9.13-27.85,0-12.44-4.83-23.75-12.71-32.17l-26.57,26.57v-4.41l24.36-24.36c-5.55-5.2-12.38-9.03-19.94-11.06l-6.3,6.3h-2.69l-.09.09v86.02c7.17-.47,13.89-2.55,19.83-5.88l-15.18-27.38v-7.76l30.16,21.9ZM104.41,66.21c0,.38-.31.68-.68.68h-6.84c-.38,0-.68-.31-.68-.68s.31-.68.68-.68h6.84c.38,0,.68.31.68.68ZM93.93,57.3l8.15-2.18c.37-.1.74.12.84.48.1.36-.12.74-.48.84l-8.15,2.18c-.06.02-.12.02-.18.02-.3,0-.58-.2-.66-.51-.1-.36.12-.74.48-.84ZM94.28,73.81l8.15,2.18c.36.1.58.47.48.84-.08.3-.36.51-.66.51-.06,0-.12,0-.18-.02l-8.15-2.18c-.36-.1-.58-.47-.48-.84.1-.36.47-.58.84-.48ZM91.62,66.21c0,.38-.31.68-.68.68h-9c-.38,0-.68-.31-.68-.68s.31-.68.68-.68h9c.38,0,.68.31.68.68ZM80.91,60.71l8.82-2.36c.37-.1.74.12.84.48.1.36-.12.74-.48.84l-8.82,2.36c-.06.02-.12.02-.18.02-.3,0-.58-.2-.66-.51-.1-.36.12-.74.48-.84ZM81.26,70.39l8.82,2.36c.36.1.58.47.48.84-.08.3-.36.51-.66.51-.06,0-.12,0-.18-.02l-8.82-2.36c-.36-.1-.58-.47-.48-.84.1-.36.47-.58.84-.48Z"/>
      <path class="st2" d="M54.27,20.78c-7.56,2.03-14.39,5.86-19.94,11.06l24.36,24.36v4.41l-26.57-26.57c-7.88,8.42-12.71,19.72-12.71,32.17,0,10.42,3.39,20.05,9.13,27.85l30.16-21.9v7.76l-15.18,27.38c5.94,3.33,12.66,5.4,19.83,5.88V27.16l-.09-.09h-2.69l-6.3-6.3ZM28.59,66.21c0-.38.31-.68.68-.68h6.84c.38,0,.68.31.68.68s-.31.68-.68.68h-6.84c-.38,0-.68-.31-.68-.68ZM39.07,75.12l-8.15,2.18c-.06.02-.12.02-.18.02-.3,0-.58-.2-.66-.51-.1-.36.12-.74.48-.84l8.15-2.18c.37-.1.74.12.84.48.1.36-.12.74-.48.84ZM38.9,58.64c-.06,0-.12,0-.18-.02l-8.15-2.18c-.36-.1-.58-.47-.48-.84.1-.36.47-.58.84-.48l8.15,2.18c.36.1.58.47.48.84-.08.3-.36.51-.66.51ZM41.37,66.21c0-.38.31-.68.68-.68h9c.38,0,.68.31.68.68s-.31.68-.68.68h-9c-.38,0-.68-.31-.68-.68ZM52.09,71.71l-8.82,2.36c-.06.02-.12.02-.18.02-.3,0-.58-.2-.66-.51-.1-.36.12-.74.48-.84l8.82-2.36c.37-.1.74.12.84.48.1.36-.12.74-.48.84ZM51.91,62.05c-.06,0-.12,0-.18-.02l-8.82-2.36c-.36-.1-.58-.47-.48-.84.1-.36.47-.58.84-.48l8.82,2.36c.36.1.58.47.48.84-.08.3-.36.51-.66.51Z"/>
      <path class="st2" d="M66.5,64.21c-1.1,0-2,.89-2,2s.89,2,2,2,2-.89,2-2-.89-2-2-2Z"/>
    </g>
  </g>
</svg>