<?xml version="1.0" encoding="UTF-8" standalone="no"?>
<svg
   id="Layer_1"
   version="1.1"
   viewBox="0 0 160 160"
   sodipodi:docname="favicon.svg"
   inkscape:version="1.4.2 (ebf0e940d0, 2025-05-08)"
   xmlns:inkscape="http://www.inkscape.org/namespaces/inkscape"
   xmlns:sodipodi="http://sodipodi.sourceforge.net/DTD/sodipodi-0.dtd"
   xmlns="http://www.w3.org/2000/svg"
   xmlns:svg="http://www.w3.org/2000/svg">
  <sodipodi:namedview
     id="namedview3"
     pagecolor="#ffffff"
     bordercolor="#666666"
     borderopacity="1.0"
     inkscape:showpageshadow="2"
     inkscape:pageopacity="0.0"
     inkscape:pagecheckerboard="0"
     inkscape:deskcolor="#d1d1d1"
     inkscape:zoom="7.7838558"
     inkscape:cx="60.702563"
     inkscape:cy="88.901955"
     inkscape:window-width="3840"
     inkscape:window-height="2121"
     inkscape:window-x="0"
     inkscape:window-y="0"
     inkscape:window-maximized="1"
     inkscape:current-layer="g4"
     inkscape:export-bgcolor="#00000000" />
  <!-- Generator: Adobe Illustrator 29.5.1, SVG Export Plug-In . SVG Version: 2.1.0 Build 141)  -->
  <defs
     id="defs1">
    <style
       id="style1">
      .st0 {
        fill: #3764af;
      }
    </style>
  </defs>
  <g
     id="g4"
     inkscape:label="g4"
     transform="translate(0,1.0991984)"
     style="display:inline">
    <circle
       style="color:#000000;display:inline;overflow:visible;fill:#ffffff;fill-opacity:1;stroke:none;stroke-width:5.90805"
       id="path4"
       cx="80"
       cy="80"
       r="67.844269"
       transform="translate(0,-1.0991984)" />
    <path
       class="st0"
       d="m 134.75,119.06 c 8.27,-11.25 13.16,-25.14 13.16,-40.17 0,-17.94 -6.97,-34.25 -18.34,-46.39 l -38.32,38.32 v -6.37 l 35.13,-35.13 c -8.01,-7.5 -17.85,-13.03 -28.76,-15.96 l -9.08,9.08 h -3.88 l -0.12,0.12 v 124.07 c 10.34,-0.68 20.04,-3.68 28.6,-8.47 l -21.89,-39.49 v -11.19 l 43.49,31.58 z m -0.07,-40.17 c 0,0.54 -0.44,0.98 -0.98,0.98 h -9.87 c -0.54,0 -0.98,-0.44 -0.98,-0.98 0,-0.54 0.44,-0.98 0.98,-0.98 h 9.87 c 0.54,0 0.98,0.44 0.98,0.98 z m -15.12,-12.85 11.75,-3.15 c 0.53,-0.14 1.07,0.17 1.21,0.7 0.14,0.53 -0.17,1.07 -0.7,1.21 l -11.75,3.15 c -0.09,0.02 -0.17,0.03 -0.26,0.03 -0.43,0 -0.83,-0.29 -0.95,-0.73 -0.14,-0.53 0.17,-1.07 0.7,-1.21 z m 0.51,23.81 11.75,3.15 c 0.53,0.14 0.84,0.68 0.7,1.21 -0.12,0.44 -0.52,0.73 -0.95,0.73 -0.08,0 -0.17,-0.01 -0.26,-0.03 l -11.75,-3.15 c -0.53,-0.14 -0.84,-0.68 -0.7,-1.21 0.14,-0.53 0.67,-0.84 1.21,-0.7 z m -3.84,-10.96 c 0,0.54 -0.44,0.98 -0.98,0.98 h -12.98 c -0.54,0 -0.98,-0.44 -0.98,-0.98 0,-0.54 0.44,-0.98 0.98,-0.98 h 12.98 c 0.54,0 0.98,0.44 0.98,0.98 z m -15.44,-7.93 12.71,-3.41 c 0.53,-0.14 1.07,0.17 1.21,0.7 0.14,0.53 -0.17,1.07 -0.7,1.21 l -12.71,3.41 c -0.09,0.02 -0.17,0.03 -0.26,0.03 -0.43,0 -0.83,-0.29 -0.95,-0.73 -0.14,-0.53 0.17,-1.07 0.7,-1.21 z m 0.51,13.97 12.71,3.41 c 0.53,0.14 0.84,0.68 0.7,1.21 -0.12,0.44 -0.52,0.73 -0.95,0.73 -0.08,0 -0.17,-0.01 -0.26,-0.03 l -12.71,-3.41 c -0.53,-0.14 -0.84,-0.68 -0.7,-1.21 0.14,-0.53 0.68,-0.84 1.21,-0.7 z"
       id="path1" />
    <path
       class="st0"
       d="m 62.37,13.36 c -10.91,2.93 -20.75,8.46 -28.76,15.96 l 35.13,35.13 v 6.37 l -38.31,-38.32 c -11.37,12.14 -18.34,28.45 -18.34,46.39 0,15.03 4.89,28.92 13.16,40.17 l 43.49,-31.58 v 11.19 l -21.89,39.49 c 8.56,4.8 18.26,7.79 28.6,8.47 v -124.06 l -0.12,-0.12 h -3.88 l -9.08,-9.08 z m -37.05,65.53 c 0,-0.54 0.44,-0.98 0.98,-0.98 h 9.87 c 0.54,0 0.98,0.44 0.98,0.98 0,0.54 -0.44,0.98 -0.98,0.98 h -9.87 c -0.54,0 -0.98,-0.44 -0.98,-0.98 z m 15.12,12.86 -11.75,3.15 c -0.09,0.02 -0.17,0.03 -0.26,0.03 -0.43,0 -0.83,-0.29 -0.95,-0.73 -0.14,-0.53 0.17,-1.07 0.7,-1.21 l 11.75,-3.15 c 0.53,-0.14 1.07,0.17 1.21,0.7 0.14,0.53 -0.17,1.07 -0.7,1.21 z m -0.25,-23.78 c -0.08,0 -0.17,-0.01 -0.26,-0.03 l -11.75,-3.15 c -0.53,-0.14 -0.84,-0.68 -0.7,-1.21 0.14,-0.53 0.68,-0.84 1.21,-0.7 l 11.75,3.15 c 0.53,0.14 0.84,0.68 0.7,1.21 -0.12,0.44 -0.52,0.73 -0.95,0.73 z m 3.58,10.92 c 0,-0.54 0.44,-0.98 0.98,-0.98 h 12.98 c 0.54,0 0.98,0.44 0.98,0.98 0,0.54 -0.44,0.98 -0.98,0.98 h -12.98 c -0.54,0 -0.98,-0.44 -0.98,-0.98 z m 15.44,7.94 -12.71,3.41 c -0.09,0.02 -0.17,0.03 -0.26,0.03 -0.43,0 -0.83,-0.29 -0.95,-0.73 -0.14,-0.53 0.17,-1.07 0.7,-1.21 l 12.71,-3.41 c 0.53,-0.14 1.07,0.17 1.21,0.7 0.14,0.53 -0.17,1.07 -0.7,1.21 z m -0.25,-13.94 c -0.08,0 -0.17,-0.01 -0.26,-0.03 l -12.71,-3.41 c -0.53,-0.14 -0.84,-0.68 -0.7,-1.21 0.14,-0.52 0.68,-0.84 1.21,-0.7 l 12.71,3.41 c 0.53,0.14 0.84,0.68 0.7,1.21 -0.12,0.44 -0.52,0.73 -0.95,0.73 z"
       id="path2" />
    <path
       class="st0"
       d="m 80,76.01 c -1.59,0 -2.88,1.29 -2.88,2.88 0,1.59 1.29,2.88 2.88,2.88 1.59,0 2.88,-1.29 2.88,-2.88 0,-1.59 -1.29,-2.88 -2.88,-2.88 z"
       id="path3" />
    <circle
       style="color:#000000;overflow:visible;fill:none;stroke:#ffffff;stroke-width:6"
       id="path5"
       cx="80"
       cy="78.900803"
       r="70.439583" />
  </g>
</svg>
