<?xml version="1.0" encoding="UTF-8" standalone="no"?>
<svg
   id="Layer_1"
   version="1.1"
   viewBox="0 0 480.12 132.71"
   sodipodi:docname="marcy_logo.svg"
   inkscape:version="1.4.2 (ebf0e940d0, 2025-05-08)"
   width="4801.2"
   height="1327.1001"
   xmlns:inkscape="http://www.inkscape.org/namespaces/inkscape"
   xmlns:sodipodi="http://sodipodi.sourceforge.net/DTD/sodipodi-0.dtd"
   xmlns="http://www.w3.org/2000/svg"
   xmlns:svg="http://www.w3.org/2000/svg">
  <sodipodi:namedview
     id="namedview32"
     pagecolor="#3764af"
     bordercolor="#666666"
     borderopacity="1.0"
     inkscape:showpageshadow="2"
     inkscape:pageopacity="0.0"
     inkscape:pagecheckerboard="0"
     inkscape:deskcolor="#d1d1d1"
     inkscape:zoom="3.5698037"
     inkscape:cx="253.6554"
     inkscape:cy="83.758106"
     inkscape:window-width="3840"
     inkscape:window-height="2121"
     inkscape:window-x="0"
     inkscape:window-y="0"
     inkscape:window-maximized="1"
     inkscape:current-layer="Layer_1" />
  <!-- Generator: Adobe Illustrator 29.5.1, SVG Export Plug-In . SVG Version: 2.1.0 Build 141)  -->
  <defs
     id="defs1">
    <style
       id="style1">
      .st0 {
        fill: #3562ad;
      }

      .st1 {
        fill: gray;
      }

      .st2 {
        fill: #3764af;
      }

      .st3 {
        fill: #fff;
        stroke: #fff;
        stroke-miterlimit: 10;
        stroke-width: 39.05px;
      }
    </style>
  </defs>
  <g
     id="g32">
    <g
       id="g15"
       style="fill:#ffffff">
      <path
         class="st0"
         d="m 157.76,50.63 c 0.2,1.73 0.42,3.51 0.65,5.31 0.23,1.8 0.44,3.51 0.65,5.11 0.2,1.6 0.39,2.97 0.56,4.09 0.05,0.41 0.14,0.88 0.29,1.42 0.14,0.54 0.26,0.95 0.36,1.24 0,0.02 0,0.04 0.02,0.05 0.02,0.01 0.02,0.04 0.02,0.09 0,0.24 -0.19,0.42 -0.57,0.56 -0.38,0.13 -0.78,0.2 -1.18,0.2 -0.31,0 -0.6,-0.05 -0.86,-0.14 -0.26,-0.1 -0.41,-0.25 -0.43,-0.47 -0.02,-0.5 -0.05,-0.94 -0.07,-1.31 -0.02,-0.37 -0.06,-0.82 -0.11,-1.35 -0.12,-1.08 -0.26,-2.37 -0.43,-3.89 -0.17,-1.52 -0.34,-3.14 -0.52,-4.86 -0.18,-1.72 -0.36,-3.43 -0.54,-5.13 -0.18,-1.7 -0.34,-3.28 -0.48,-4.74 -0.72,1.48 -1.44,3.01 -2.17,4.58 -0.73,1.57 -1.42,3.07 -2.06,4.52 -0.65,1.45 -1.22,2.76 -1.72,3.93 -0.5,1.17 -0.9,2.13 -1.18,2.87 -0.28,0.74 -0.43,1.18 -0.43,1.33 -0.02,0.31 -0.24,0.56 -0.65,0.75 -0.41,0.19 -0.81,0.29 -1.22,0.29 -0.26,0 -0.5,-0.04 -0.72,-0.13 -0.22,-0.08 -0.35,-0.22 -0.39,-0.41 -0.12,-0.38 -0.26,-0.79 -0.41,-1.22 -0.15,-0.43 -0.27,-0.72 -0.34,-0.86 -0.36,-0.84 -0.79,-1.87 -1.29,-3.1 -0.5,-1.23 -1.04,-2.56 -1.62,-3.98 -0.57,-1.42 -1.14,-2.84 -1.7,-4.25 -0.56,-1.41 -1.07,-2.73 -1.52,-3.95 -0.17,1.96 -0.36,4.03 -0.59,6.21 -0.23,2.18 -0.46,4.31 -0.7,6.39 -0.24,2.08 -0.47,3.98 -0.68,5.71 -0.05,0.43 -0.08,0.85 -0.11,1.26 -0.02,0.41 -0.06,0.85 -0.11,1.33 -0.02,0.22 -0.21,0.38 -0.56,0.5 -0.35,0.12 -0.72,0.18 -1.13,0.18 -0.33,0 -0.63,-0.05 -0.88,-0.14 -0.25,-0.09 -0.38,-0.23 -0.38,-0.39 v -0.07 c 0.19,-0.62 0.38,-1.48 0.57,-2.58 0.19,-1.1 0.38,-2.34 0.57,-3.73 0.19,-1.39 0.38,-2.83 0.56,-4.32 0.18,-1.49 0.35,-2.94 0.52,-4.34 0.17,-1.4 0.3,-2.67 0.41,-3.8 0.11,-1.13 0.2,-2.05 0.27,-2.73 0.07,-0.68 0.11,-1.03 0.11,-1.06 0,-0.19 0,-0.35 -0.02,-0.48 -0.01,-0.13 -0.02,-0.26 -0.02,-0.38 v -0.18 c 0,-0.07 0.01,-0.13 0.04,-0.18 0.05,-0.29 0.3,-0.54 0.75,-0.75 0.45,-0.21 0.91,-0.32 1.36,-0.32 0.33,0 0.57,0.06 0.72,0.18 0.14,0.12 0.33,0.49 0.57,1.11 0.55,1.43 1.14,2.94 1.76,4.52 0.62,1.58 1.24,3.15 1.86,4.7 0.62,1.55 1.22,3.02 1.8,4.4 0.57,1.38 1.1,2.59 1.58,3.64 0.77,-1.87 1.58,-3.82 2.46,-5.85 0.87,-2.03 1.76,-4.06 2.67,-6.06 0.91,-2.01 1.77,-3.86 2.58,-5.56 0.17,-0.33 0.32,-0.65 0.47,-0.95 0.15,-0.3 0.42,-0.45 0.82,-0.45 0.26,0 0.59,0.07 0.97,0.2 0.38,0.13 0.73,0.29 1.04,0.48 0.31,0.19 0.47,0.38 0.47,0.57 0,0.24 -0.03,0.47 -0.09,0.7 -0.06,0.23 -0.09,0.5 -0.09,0.81 v 0.25 c 0.14,1.39 0.32,2.95 0.52,4.68 z"
         id="path1"
         style="fill:#ffffff" />
      <path
         class="st0"
         d="m 179.04,54.19 c -0.06,0.87 -0.11,1.79 -0.14,2.76 -0.04,0.97 -0.07,1.87 -0.09,2.71 -0.02,0.84 -0.04,1.47 -0.04,1.9 0,0.33 0.02,0.83 0.05,1.49 0.04,0.66 0.14,1.36 0.32,2.1 0.18,0.74 0.47,1.44 0.88,2.08 0.05,0.1 0.07,0.17 0.07,0.22 0,0.26 -0.16,0.58 -0.48,0.95 -0.32,0.37 -0.69,0.56 -1.09,0.56 -0.36,0 -0.68,-0.26 -0.95,-0.77 -0.27,-0.51 -0.49,-1.14 -0.65,-1.87 -0.16,-0.73 -0.27,-1.42 -0.34,-2.06 -0.88,1.68 -1.96,2.91 -3.21,3.7 -1.26,0.79 -2.55,1.18 -3.89,1.18 -1.75,0 -3.15,-0.59 -4.2,-1.78 -1.05,-1.19 -1.58,-2.9 -1.58,-5.15 0,-1.53 0.25,-2.97 0.75,-4.31 0.5,-1.34 1.18,-2.52 2.03,-3.55 0.85,-1.03 1.8,-1.83 2.85,-2.42 1.05,-0.59 2.13,-0.88 3.23,-0.88 0.84,0 1.6,0.19 2.3,0.56 0.69,0.37 1.24,0.97 1.65,1.81 v -1.97 c 0,-0.24 0.25,-0.36 0.75,-0.36 0.41,0 0.84,0.08 1.29,0.25 0.45,0.17 0.68,0.39 0.68,0.68 v 0.07 c -0.07,0.53 -0.14,1.23 -0.2,2.1 z m -3.18,0.98 c -0.1,0 -0.18,-0.05 -0.25,-0.14 -0.41,-0.69 -0.88,-1.18 -1.42,-1.47 -0.54,-0.29 -1.08,-0.43 -1.63,-0.43 -0.74,0 -1.49,0.22 -2.24,0.66 -0.75,0.44 -1.45,1.06 -2.08,1.87 -0.63,0.8 -1.14,1.75 -1.52,2.83 -0.38,1.09 -0.57,2.27 -0.57,3.54 0,1.82 0.31,3.1 0.93,3.84 0.62,0.74 1.41,1.11 2.37,1.11 1.15,0 2.24,-0.38 3.27,-1.13 1.03,-0.75 1.88,-1.8 2.57,-3.14 0.69,-1.34 1.06,-2.89 1.13,-4.66 0.02,-0.33 0.04,-0.8 0.04,-1.4 0,-0.6 0.01,-1.2 0.04,-1.79 -0.22,0.22 -0.42,0.32 -0.61,0.32 z"
         id="path2"
         style="fill:#ffffff" />
      <path
         class="st0"
         d="m 185.66,54.2 c -0.02,-0.5 -0.04,-1.02 -0.05,-1.54 -0.01,-0.53 -0.02,-0.92 -0.02,-1.18 0,-0.24 0.24,-0.36 0.72,-0.36 0.38,0 0.79,0.09 1.24,0.27 0.44,0.18 0.66,0.42 0.66,0.74 0,0.24 -0.02,0.5 -0.05,0.79 -0.04,0.29 -0.05,0.63 -0.05,1.04 0.48,-0.79 1.16,-1.47 2.05,-2.04 0.88,-0.57 1.95,-0.86 3.19,-0.86 0.72,0 1.39,0.12 2.01,0.36 0.62,0.24 1.13,0.53 1.53,0.86 0.39,0.34 0.59,0.65 0.59,0.93 0,0.38 -0.14,0.79 -0.41,1.22 -0.28,0.43 -0.57,0.65 -0.88,0.65 -0.19,0 -0.36,-0.12 -0.5,-0.36 -0.24,-0.45 -0.62,-0.79 -1.13,-1 -0.51,-0.21 -0.95,-0.32 -1.31,-0.32 -1,0 -1.93,0.31 -2.78,0.93 -0.85,0.62 -1.48,1.58 -1.88,2.87 -0.17,0.53 -0.29,1.11 -0.36,1.76 -0.07,0.65 -0.11,1.42 -0.13,2.33 -0.01,0.91 -0.02,2.05 -0.02,3.41 0,0.74 0.03,1.46 0.09,2.15 0.06,0.69 0.09,1.24 0.09,1.65 0,0.24 -0.24,0.36 -0.72,0.36 -0.38,0 -0.79,-0.09 -1.24,-0.27 -0.45,-0.18 -0.66,-0.42 -0.66,-0.74 0,-0.19 0,-0.51 0.02,-0.95 0.02,-0.44 0.02,-0.88 0.04,-1.31 0.01,-0.43 0.02,-0.73 0.02,-0.9 v -9.37 c 0,-0.24 -0.01,-0.61 -0.04,-1.11 z"
         id="path3"
         style="fill:#ffffff" />
      <path
         class="st0"
         d="m 203.74,46.83 c -0.31,0.32 -0.74,0.48 -1.29,0.48 -0.45,0 -0.87,-0.23 -1.24,-0.7 -0.37,-0.47 -0.56,-0.95 -0.56,-1.45 0,-0.5 0.15,-0.88 0.45,-1.22 0.3,-0.33 0.75,-0.5 1.34,-0.5 0.43,0 0.83,0.24 1.2,0.72 0.37,0.48 0.56,0.98 0.56,1.51 0,0.45 -0.16,0.84 -0.47,1.17 z m -2.54,7.34 c -0.02,-0.5 -0.04,-1.02 -0.05,-1.54 -0.01,-0.53 -0.02,-0.92 -0.02,-1.18 0,-0.22 0.23,-0.32 0.68,-0.32 0.41,0 0.84,0.09 1.29,0.27 0.45,0.18 0.68,0.41 0.68,0.7 0,0.19 0,0.48 -0.02,0.88 -0.01,0.39 -0.02,0.81 -0.04,1.24 -0.02,0.43 -0.02,0.79 -0.02,1.08 v 9.44 c 0,0.14 0.01,0.47 0.04,0.97 0.02,0.5 0.04,1.03 0.05,1.58 0.01,0.55 0.02,0.97 0.02,1.26 0,0.22 -0.23,0.32 -0.68,0.32 -0.38,0 -0.81,-0.09 -1.27,-0.27 -0.47,-0.18 -0.7,-0.41 -0.7,-0.7 0,-0.19 0,-0.51 0.02,-0.95 0.01,-0.44 0.02,-0.88 0.04,-1.31 0.02,-0.43 0.02,-0.73 0.02,-0.9 v -9.44 c 0,-0.24 -0.01,-0.61 -0.04,-1.11 z"
         id="path4"
         style="fill:#ffffff" />
      <path
         class="st0"
         d="m 222.58,66.91 c 0,-0.45 0,-0.93 0.02,-1.42 0.02,-0.49 0.02,-0.87 0.02,-1.13 v -6.39 c 0,-1.41 -0.19,-2.54 -0.57,-3.39 -0.38,-0.85 -1.17,-1.27 -2.37,-1.27 -0.81,0 -1.63,0.16 -2.46,0.47 -0.82,0.31 -1.57,0.82 -2.24,1.54 -0.67,0.72 -1.18,1.68 -1.54,2.87 -0.17,0.6 -0.29,1.3 -0.38,2.1 -0.08,0.8 -0.13,1.6 -0.14,2.39 -0.01,0.79 -0.03,1.47 -0.05,2.05 v 0.57 c 0,0.57 0.01,1.14 0.04,1.69 0.02,0.55 0.05,1.06 0.07,1.54 0,0.24 -0.23,0.36 -0.68,0.36 -0.38,0 -0.79,-0.09 -1.22,-0.27 -0.43,-0.18 -0.65,-0.42 -0.65,-0.74 0,-0.19 0,-0.54 0.02,-1.04 0.01,-0.5 0.02,-1 0.04,-1.49 0.01,-0.49 0.02,-0.82 0.02,-0.99 v -8.93 c 0,-0.24 -0.01,-0.61 -0.04,-1.11 -0.02,-0.5 -0.04,-1.02 -0.05,-1.54 -0.01,-0.53 -0.02,-0.92 -0.02,-1.18 0,-0.24 0.23,-0.36 0.68,-0.36 0.38,0 0.79,0.09 1.22,0.27 0.43,0.18 0.65,0.42 0.65,0.74 -0.02,0.67 -0.04,1.22 -0.05,1.65 -0.01,0.43 -0.02,0.8 -0.02,1.11 0.77,-1.27 1.76,-2.24 3,-2.91 1.24,-0.67 2.51,-1 3.82,-1 1.15,0 2.07,0.21 2.78,0.63 0.71,0.42 1.24,0.96 1.61,1.63 0.37,0.67 0.62,1.4 0.74,2.19 0.12,0.79 0.18,1.56 0.18,2.3 v 6.89 c 0,0.14 0.01,0.47 0.04,0.97 0.02,0.5 0.04,1.03 0.05,1.58 0.01,0.55 0.02,0.97 0.02,1.26 0,0.24 -0.23,0.36 -0.68,0.36 -0.38,0 -0.79,-0.09 -1.22,-0.27 -0.43,-0.18 -0.65,-0.41 -0.65,-0.7 v -0.04 c 0.02,-0.19 0.04,-0.51 0.04,-0.97 z"
         id="path5"
         style="fill:#ffffff" />
      <path
         class="st0"
         d="m 232.85,61.81 c 0,1.55 0.4,2.81 1.2,3.77 0.8,0.96 1.8,1.43 3,1.43 1.53,0 2.94,-0.25 4.22,-0.74 1.28,-0.49 2.4,-1.25 3.35,-2.28 0.17,-0.19 0.32,-0.33 0.47,-0.41 0.14,-0.08 0.26,-0.13 0.36,-0.13 0.24,0 0.36,0.14 0.36,0.43 0,0.22 -0.17,0.6 -0.52,1.15 -0.35,0.55 -0.88,1.14 -1.6,1.78 -0.72,0.63 -1.63,1.18 -2.73,1.63 -1.1,0.45 -2.41,0.68 -3.91,0.68 -1.22,0 -2.33,-0.31 -3.32,-0.92 -0.99,-0.61 -1.78,-1.49 -2.35,-2.64 -0.57,-1.15 -0.86,-2.51 -0.86,-4.09 v -0.5 c -0.22,-0.17 -0.39,-0.36 -0.54,-0.57 -0.14,-0.22 -0.22,-0.41 -0.22,-0.57 0,-0.31 0.23,-0.47 0.68,-0.47 0.02,0 0.08,0 0.16,-0.02 0.08,-0.01 0.14,-0.02 0.16,-0.02 0.17,-0.86 0.51,-1.77 1.02,-2.73 0.51,-0.96 1.17,-1.86 1.96,-2.71 0.79,-0.85 1.69,-1.54 2.71,-2.06 1.02,-0.53 2.11,-0.79 3.28,-0.79 1.48,0 2.66,0.26 3.53,0.77 0.87,0.51 1.49,1.17 1.86,1.97 0.37,0.8 0.56,1.63 0.56,2.49 0,0.81 -0.07,1.46 -0.2,1.94 -0.13,0.48 -0.44,0.87 -0.91,1.17 -0.48,0.3 -1.26,0.62 -2.33,0.95 -1.08,0.33 -2.36,0.6 -3.86,0.81 -1.5,0.2 -3.19,0.3 -5.08,0.3 h -0.47 v 0.36 z m 5.45,-2.67 c 1.2,-0.2 2.19,-0.41 2.98,-0.63 0.86,-0.26 1.42,-0.55 1.67,-0.86 0.25,-0.31 0.38,-0.78 0.38,-1.4 0,-2.08 -1.21,-3.12 -3.62,-3.12 -0.89,0 -1.7,0.2 -2.44,0.61 -0.74,0.41 -1.39,0.93 -1.95,1.58 -0.56,0.65 -1.03,1.33 -1.4,2.06 -0.37,0.73 -0.63,1.42 -0.77,2.06 h 0.72 c 1.77,0 3.25,-0.1 4.45,-0.3 z"
         id="path6"
         style="fill:#ffffff" />
      <path
         class="st0"
         d="m 284.03,63.08 c -0.32,0.56 -0.79,1.18 -1.42,1.86 -0.62,0.68 -1.39,1.34 -2.31,1.97 -0.92,0.63 -1.98,1.16 -3.17,1.58 -1.2,0.42 -2.53,0.63 -3.98,0.63 -2.08,0 -3.96,-0.38 -5.62,-1.15 -1.66,-0.77 -2.97,-1.97 -3.93,-3.61 -0.96,-1.64 -1.43,-3.77 -1.43,-6.41 0,-2.1 0.32,-4.07 0.97,-5.9 0.65,-1.83 1.55,-3.43 2.71,-4.81 1.16,-1.37 2.52,-2.45 4.07,-3.21 1.55,-0.77 3.24,-1.15 5.06,-1.15 0.33,0 0.82,0.02 1.45,0.07 0.63,0.05 1.33,0.17 2.1,0.36 0.77,0.19 1.53,0.5 2.3,0.92 0.77,0.42 1.45,0.99 2.05,1.7 0.07,0.1 0.11,0.23 0.11,0.39 0,0.33 -0.16,0.71 -0.47,1.11 -0.31,0.41 -0.63,0.61 -0.97,0.61 -0.22,0 -0.39,-0.11 -0.54,-0.32 -0.41,-0.62 -0.92,-1.11 -1.54,-1.45 -0.62,-0.35 -1.25,-0.6 -1.88,-0.75 -0.63,-0.15 -1.2,-0.25 -1.7,-0.29 -0.5,-0.04 -0.85,-0.05 -1.04,-0.05 -1.34,0 -2.61,0.3 -3.82,0.91 -1.21,0.61 -2.28,1.48 -3.23,2.62 -0.95,1.14 -1.69,2.48 -2.22,4.04 -0.54,1.55 -0.81,3.26 -0.81,5.13 0,2.08 0.36,3.78 1.09,5.1 0.73,1.31 1.74,2.29 3.03,2.92 1.29,0.63 2.79,0.95 4.49,0.95 1.1,0 2.26,-0.21 3.48,-0.63 1.22,-0.42 2.39,-1.01 3.52,-1.78 1.12,-0.77 2.06,-1.64 2.8,-2.62 0.29,-0.36 0.57,-0.54 0.86,-0.54 0.33,0 0.5,0.19 0.5,0.57 0,0.24 -0.16,0.64 -0.48,1.2 z"
         id="path7"
         style="fill:#ffffff" />
      <path
         class="st0"
         d="m 287.82,74.23 c -0.57,-0.1 -1.14,-0.37 -1.69,-0.82 -0.12,-0.12 -0.18,-0.27 -0.18,-0.47 0,-0.33 0.12,-0.71 0.36,-1.13 0.24,-0.42 0.51,-0.63 0.82,-0.63 0.17,0 0.32,0.08 0.47,0.25 0.31,0.31 0.65,0.5 1,0.57 0.36,0.07 0.69,0.11 1,0.11 0.38,0 0.76,-0.14 1.13,-0.43 0.37,-0.29 0.72,-0.8 1.06,-1.54 l 1.58,-3.3 -5.24,-11.88 c -0.17,-0.36 -0.4,-0.84 -0.7,-1.44 -0.3,-0.6 -0.56,-1.09 -0.77,-1.47 -0.05,-0.1 -0.07,-0.17 -0.07,-0.22 0,-0.19 0.15,-0.33 0.45,-0.43 0.3,-0.1 0.63,-0.14 0.99,-0.14 0.33,0 0.64,0.04 0.92,0.11 0.27,0.07 0.44,0.19 0.48,0.36 0.17,0.43 0.34,0.87 0.52,1.31 0.18,0.44 0.36,0.89 0.56,1.35 l 4.16,9.65 4.41,-9.29 c 0.24,-0.48 0.47,-1.02 0.7,-1.61 0.23,-0.6 0.42,-1.17 0.59,-1.72 0.07,-0.22 0.27,-0.32 0.61,-0.32 0.36,0 0.74,0.13 1.15,0.39 0.41,0.26 0.61,0.59 0.61,0.97 0,0.14 -0.04,0.29 -0.11,0.43 -0.19,0.36 -0.42,0.78 -0.68,1.27 -0.26,0.49 -0.5,0.95 -0.72,1.38 l -7.57,15.9 c -0.48,1 -1.02,1.75 -1.63,2.22 -0.61,0.47 -1.38,0.72 -2.31,0.72 h -0.36 c -0.45,0 -0.97,-0.05 -1.54,-0.14 z"
         id="path8"
         style="fill:#ffffff" />
      <path
         class="st0"
         d="m 307.38,53.27 c -0.53,0 -0.93,0.02 -1.22,0.05 -0.29,0.04 -0.61,0.07 -0.97,0.09 h -0.04 c -0.31,0 -0.57,-0.18 -0.79,-0.54 -0.22,-0.36 -0.32,-0.69 -0.32,-1.01 0,-0.33 0.13,-0.5 0.39,-0.5 h 3.12 v -1.83 c 0,-0.24 0,-0.61 -0.02,-1.11 -0.01,-0.5 -0.02,-1.02 -0.04,-1.54 -0.01,-0.53 -0.02,-0.92 -0.02,-1.18 0,-0.12 0.07,-0.21 0.22,-0.27 0.15,-0.06 0.31,-0.09 0.5,-0.09 0.38,0 0.79,0.09 1.22,0.27 0.43,0.18 0.65,0.43 0.65,0.74 0,0.19 0,0.48 -0.02,0.88 -0.01,0.39 -0.02,0.81 -0.04,1.24 -0.01,0.43 -0.02,0.79 -0.02,1.08 v 1.72 l 1,-0.04 c 0.43,-0.02 0.93,-0.06 1.51,-0.11 0.57,-0.05 0.98,-0.08 1.22,-0.11 h 0.04 c 0.31,0 0.58,0.18 0.81,0.54 0.23,0.36 0.34,0.69 0.34,1 0,0.36 -0.14,0.54 -0.43,0.54 h -1.36 c -0.67,0 -1.24,0.01 -1.72,0.04 l -1.4,0.04 v 11.45 c 0,0.96 0.08,1.57 0.25,1.83 0.17,0.26 0.51,0.39 1.04,0.39 0.41,0 0.91,-0.13 1.52,-0.39 0.61,-0.26 1.21,-0.62 1.81,-1.08 0.41,-0.31 0.73,-0.47 0.97,-0.47 0.24,0 0.36,0.13 0.36,0.39 0,0.22 -0.15,0.53 -0.45,0.95 -0.3,0.42 -0.69,0.85 -1.18,1.29 -0.49,0.44 -1.03,0.82 -1.61,1.13 -0.59,0.31 -1.17,0.47 -1.74,0.47 -1.24,0 -2.12,-0.38 -2.64,-1.15 -0.52,-0.77 -0.77,-1.91 -0.77,-3.45 v -11.27 h -0.18 z"
         id="path9"
         style="fill:#ffffff" />
      <path
         class="st0"
         d="m 325.11,51.51 c 0.67,-0.31 1.51,-0.47 2.51,-0.47 1.36,0 2.57,0.35 3.63,1.04 1.05,0.69 1.87,1.68 2.46,2.96 0.59,1.28 0.88,2.83 0.88,4.65 0,1.15 -0.19,2.28 -0.56,3.39 -0.37,1.11 -0.92,2.13 -1.65,3.05 -0.73,0.92 -1.63,1.65 -2.69,2.19 -1.06,0.54 -2.29,0.81 -3.68,0.81 -2.39,0 -4.25,-0.72 -5.58,-2.17 -1.33,-1.45 -1.99,-3.42 -1.99,-5.9 0,-1.05 0.17,-2.1 0.52,-3.14 0.35,-1.04 0.77,-1.99 1.26,-2.85 0.49,-0.86 0.97,-1.56 1.45,-2.08 0.48,-0.53 0.85,-0.79 1.11,-0.79 0.24,0 0.44,0.11 0.61,0.32 0.48,-0.36 1.05,-0.69 1.72,-1 z m 4.03,14.48 c 0.92,-0.63 1.66,-1.5 2.21,-2.6 0.55,-1.1 0.82,-2.33 0.82,-3.7 0,-1.98 -0.39,-3.56 -1.17,-4.74 -0.78,-1.17 -1.98,-1.76 -3.61,-1.76 -0.96,0 -1.83,0.23 -2.64,0.68 -0.8,0.45 -1.5,1.06 -2.08,1.83 -0.59,0.77 -1.04,1.61 -1.36,2.53 -0.32,0.92 -0.48,1.85 -0.48,2.78 0,1.96 0.45,3.44 1.35,4.43 0.9,0.99 2.17,1.49 3.82,1.49 1.17,0 2.22,-0.32 3.14,-0.95 z"
         id="path10"
         style="fill:#ffffff" />
      <path
         class="st0"
         d="m 359.48,54.51 c -0.48,-0.87 -1.24,-1.31 -2.3,-1.31 -0.72,0 -1.45,0.26 -2.21,0.79 -0.76,0.53 -1.39,1.22 -1.9,2.08 -0.51,0.86 -0.77,1.79 -0.77,2.8 v 5.85 c 0,0.67 0.03,1.37 0.09,2.1 0.06,0.73 0.09,1.3 0.09,1.7 0,0.12 -0.07,0.21 -0.22,0.27 -0.15,0.06 -0.31,0.09 -0.5,0.09 -0.38,0 -0.79,-0.09 -1.22,-0.27 -0.43,-0.18 -0.65,-0.42 -0.65,-0.74 0,-0.19 0.01,-0.48 0.04,-0.88 0.03,-0.4 0.05,-0.81 0.07,-1.24 0.02,-0.43 0.04,-0.78 0.04,-1.04 v -6.75 c 0,-1.41 -0.2,-2.56 -0.59,-3.45 -0.39,-0.88 -1.08,-1.33 -2.06,-1.33 -0.5,0 -1.04,0.12 -1.61,0.36 -0.57,0.24 -1.12,0.68 -1.65,1.31 -0.53,0.63 -0.97,1.55 -1.33,2.74 -0.29,0.96 -0.45,2.08 -0.48,3.36 -0.04,1.28 -0.07,2.53 -0.09,3.75 0,0.74 0.03,1.46 0.09,2.15 0.06,0.69 0.09,1.24 0.09,1.65 0,0.24 -0.24,0.36 -0.72,0.36 -0.38,0 -0.8,-0.09 -1.24,-0.27 -0.44,-0.18 -0.66,-0.42 -0.66,-0.74 0,-0.19 0,-0.51 0.02,-0.95 0.01,-0.44 0.02,-0.88 0.04,-1.31 0.01,-0.43 0.02,-0.73 0.02,-0.9 v -9.01 c 0,-0.24 -0.01,-0.63 -0.04,-1.18 -0.02,-0.55 -0.04,-1.12 -0.05,-1.7 -0.01,-0.59 -0.02,-1.01 -0.02,-1.27 0,-0.24 0.24,-0.36 0.72,-0.36 0.38,0 0.79,0.09 1.24,0.27 0.44,0.18 0.66,0.43 0.66,0.74 0,0.24 0,0.52 -0.02,0.84 -0.01,0.32 -0.02,0.72 -0.02,1.2 0.48,-0.98 1.18,-1.76 2.1,-2.33 0.92,-0.57 1.91,-0.86 2.96,-0.86 1.34,0 2.36,0.33 3.05,1 0.69,0.67 1.15,1.45 1.36,2.33 0.62,-1.1 1.43,-1.93 2.44,-2.49 1.01,-0.56 2.02,-0.84 3.05,-0.84 1.24,0 2.26,0.33 3.03,0.99 0.78,0.66 1.34,1.51 1.7,2.55 0.36,1.04 0.54,2.12 0.54,3.25 v 6.89 c 0,0.14 0,0.47 0.02,0.97 0.01,0.5 0.03,1.03 0.05,1.58 0.02,0.55 0.04,0.97 0.04,1.26 0,0.24 -0.24,0.36 -0.72,0.36 -0.38,0 -0.79,-0.09 -1.24,-0.27 -0.45,-0.18 -0.66,-0.42 -0.66,-0.74 0,-0.19 0.01,-0.48 0.04,-0.88 0.02,-0.39 0.05,-0.81 0.07,-1.24 0.02,-0.43 0.04,-0.78 0.04,-1.04 v -6.75 c 0,-1.43 -0.24,-2.59 -0.72,-3.46 z"
         id="path11"
         style="fill:#ffffff" />
      <path
         class="st0"
         d="m 370.43,61.81 c 0,1.55 0.4,2.81 1.2,3.77 0.8,0.96 1.8,1.43 2.99,1.43 1.53,0 2.94,-0.25 4.22,-0.74 1.28,-0.49 2.4,-1.25 3.35,-2.28 0.17,-0.19 0.32,-0.33 0.47,-0.41 0.14,-0.08 0.26,-0.13 0.36,-0.13 0.24,0 0.36,0.14 0.36,0.43 0,0.22 -0.17,0.6 -0.52,1.15 -0.35,0.55 -0.88,1.14 -1.6,1.78 -0.72,0.63 -1.63,1.18 -2.73,1.63 -1.1,0.45 -2.4,0.68 -3.91,0.68 -1.22,0 -2.33,-0.31 -3.32,-0.92 -0.99,-0.61 -1.78,-1.49 -2.35,-2.64 -0.57,-1.15 -0.86,-2.51 -0.86,-4.09 v -0.5 c -0.22,-0.17 -0.39,-0.36 -0.54,-0.57 -0.14,-0.22 -0.22,-0.41 -0.22,-0.57 0,-0.31 0.23,-0.47 0.68,-0.47 0.02,0 0.08,0 0.16,-0.02 0.08,-0.02 0.14,-0.02 0.16,-0.02 0.17,-0.86 0.51,-1.77 1.02,-2.73 0.51,-0.96 1.17,-1.86 1.95,-2.71 0.79,-0.85 1.69,-1.54 2.71,-2.06 1.02,-0.53 2.11,-0.79 3.28,-0.79 1.48,0 2.66,0.26 3.53,0.77 0.87,0.51 1.49,1.17 1.86,1.97 0.37,0.8 0.56,1.63 0.56,2.49 0,0.81 -0.07,1.46 -0.2,1.94 -0.13,0.48 -0.44,0.87 -0.91,1.17 -0.48,0.3 -1.26,0.62 -2.33,0.95 -1.08,0.33 -2.36,0.6 -3.86,0.81 -1.49,0.2 -3.19,0.3 -5.08,0.3 h -0.47 v 0.36 z m 5.45,-2.67 c 1.2,-0.2 2.19,-0.41 2.98,-0.63 0.86,-0.26 1.42,-0.55 1.67,-0.86 0.25,-0.31 0.38,-0.78 0.38,-1.4 0,-2.08 -1.21,-3.12 -3.62,-3.12 -0.89,0 -1.7,0.2 -2.44,0.61 -0.74,0.41 -1.39,0.93 -1.95,1.58 -0.56,0.65 -1.03,1.33 -1.4,2.06 -0.37,0.73 -0.63,1.42 -0.77,2.06 h 0.72 c 1.77,0 3.25,-0.1 4.45,-0.3 z"
         id="path12"
         style="fill:#ffffff" />
      <path
         class="st0"
         d="m 389.23,53.27 c -0.53,0 -0.93,0.02 -1.22,0.05 -0.29,0.04 -0.61,0.07 -0.97,0.09 h -0.04 c -0.31,0 -0.57,-0.18 -0.79,-0.54 -0.22,-0.36 -0.32,-0.69 -0.32,-1.01 0,-0.33 0.13,-0.5 0.39,-0.5 h 3.12 v -1.83 c 0,-0.24 0,-0.61 -0.02,-1.11 -0.01,-0.5 -0.02,-1.02 -0.04,-1.54 -0.01,-0.53 -0.02,-0.92 -0.02,-1.18 0,-0.12 0.07,-0.21 0.22,-0.27 0.15,-0.06 0.31,-0.09 0.5,-0.09 0.38,0 0.79,0.09 1.22,0.27 0.43,0.18 0.65,0.43 0.65,0.74 0,0.19 0,0.48 -0.02,0.88 -0.01,0.39 -0.02,0.81 -0.04,1.24 -0.01,0.43 -0.02,0.79 -0.02,1.08 v 1.72 l 1,-0.04 c 0.43,-0.02 0.93,-0.06 1.51,-0.11 0.57,-0.05 0.98,-0.08 1.22,-0.11 h 0.04 c 0.31,0 0.58,0.18 0.81,0.54 0.23,0.36 0.34,0.69 0.34,1 0,0.36 -0.14,0.54 -0.43,0.54 h -1.36 c -0.67,0 -1.24,0.01 -1.72,0.04 l -1.4,0.04 v 11.45 c 0,0.96 0.08,1.57 0.25,1.83 0.17,0.26 0.51,0.39 1.04,0.39 0.41,0 0.91,-0.13 1.52,-0.39 0.61,-0.26 1.21,-0.62 1.81,-1.08 0.41,-0.31 0.73,-0.47 0.97,-0.47 0.24,0 0.36,0.13 0.36,0.39 0,0.22 -0.15,0.53 -0.45,0.95 -0.3,0.42 -0.69,0.85 -1.18,1.29 -0.49,0.44 -1.03,0.82 -1.61,1.13 -0.59,0.31 -1.17,0.47 -1.74,0.47 -1.24,0 -2.12,-0.38 -2.64,-1.15 -0.52,-0.77 -0.77,-1.91 -0.77,-3.45 v -11.27 h -0.18 z"
         id="path13"
         style="fill:#ffffff" />
      <path
         class="st0"
         d="m 401.61,54.2 c -0.02,-0.5 -0.04,-1.02 -0.05,-1.54 -0.01,-0.53 -0.02,-0.92 -0.02,-1.18 0,-0.24 0.24,-0.36 0.72,-0.36 0.38,0 0.79,0.09 1.24,0.27 0.44,0.18 0.66,0.42 0.66,0.74 0,0.24 -0.02,0.5 -0.05,0.79 -0.03,0.29 -0.05,0.63 -0.05,1.04 0.48,-0.79 1.16,-1.47 2.04,-2.04 0.88,-0.57 1.95,-0.86 3.2,-0.86 0.72,0 1.39,0.12 2.01,0.36 0.62,0.24 1.13,0.53 1.52,0.86 0.39,0.34 0.59,0.65 0.59,0.93 0,0.38 -0.14,0.79 -0.41,1.22 -0.27,0.43 -0.57,0.65 -0.88,0.65 -0.19,0 -0.36,-0.12 -0.5,-0.36 -0.24,-0.45 -0.62,-0.79 -1.13,-1 -0.51,-0.21 -0.95,-0.32 -1.31,-0.32 -1,0 -1.93,0.31 -2.78,0.93 -0.85,0.62 -1.48,1.58 -1.88,2.87 -0.17,0.53 -0.29,1.11 -0.36,1.76 -0.07,0.65 -0.11,1.42 -0.13,2.33 -0.01,0.91 -0.02,2.05 -0.02,3.41 0,0.74 0.03,1.46 0.09,2.15 0.06,0.69 0.09,1.24 0.09,1.65 0,0.24 -0.24,0.36 -0.72,0.36 -0.38,0 -0.79,-0.09 -1.24,-0.27 -0.44,-0.18 -0.66,-0.42 -0.66,-0.74 0,-0.19 0,-0.51 0.02,-0.95 0.01,-0.44 0.02,-0.88 0.04,-1.31 0.01,-0.43 0.02,-0.73 0.02,-0.9 v -9.37 c 0,-0.24 -0.01,-0.61 -0.04,-1.11 z"
         id="path14"
         style="fill:#ffffff" />
      <path
         class="st0"
         d="m 415.96,74.23 c -0.57,-0.1 -1.14,-0.37 -1.69,-0.82 -0.12,-0.12 -0.18,-0.27 -0.18,-0.47 0,-0.33 0.12,-0.71 0.36,-1.13 0.24,-0.42 0.51,-0.63 0.82,-0.63 0.17,0 0.32,0.08 0.47,0.25 0.31,0.31 0.65,0.5 1,0.57 0.36,0.07 0.69,0.11 1,0.11 0.38,0 0.76,-0.14 1.13,-0.43 0.37,-0.29 0.72,-0.8 1.06,-1.54 l 1.58,-3.3 -5.24,-11.88 c -0.17,-0.36 -0.4,-0.84 -0.7,-1.44 -0.3,-0.6 -0.56,-1.09 -0.77,-1.47 -0.05,-0.1 -0.07,-0.17 -0.07,-0.22 0,-0.19 0.15,-0.33 0.45,-0.43 0.3,-0.1 0.63,-0.14 0.99,-0.14 0.33,0 0.64,0.04 0.92,0.11 0.27,0.07 0.44,0.19 0.48,0.36 0.17,0.43 0.34,0.87 0.52,1.31 0.18,0.44 0.36,0.89 0.56,1.35 l 4.16,9.65 4.41,-9.29 c 0.24,-0.48 0.47,-1.02 0.7,-1.61 0.23,-0.6 0.42,-1.17 0.59,-1.72 0.07,-0.22 0.27,-0.32 0.61,-0.32 0.36,0 0.74,0.13 1.15,0.39 0.41,0.26 0.61,0.59 0.61,0.97 0,0.14 -0.04,0.29 -0.11,0.43 -0.19,0.36 -0.42,0.78 -0.68,1.27 -0.26,0.49 -0.5,0.95 -0.72,1.38 l -7.57,15.9 c -0.48,1 -1.02,1.75 -1.63,2.22 -0.61,0.47 -1.38,0.72 -2.31,0.72 h -0.36 c -0.45,0 -0.97,-0.05 -1.54,-0.14 z"
         id="path15"
         style="fill:#ffffff" />
    </g>
    <g
       id="g28"
       style="fill:#ffffff">
      <path
         class="st1"
         d="m 316.71,91.63 c -0.32,-0.05 -0.52,-0.11 -0.6,-0.18 -0.08,-0.07 -0.13,-0.13 -0.13,-0.18 0,-0.11 0.07,-0.2 0.23,-0.26 0.15,-0.06 0.42,-0.09 0.81,-0.09 v -11.15 c -0.17,-0.04 -0.35,-0.15 -0.51,-0.33 -0.16,-0.18 -0.24,-0.34 -0.24,-0.48 0,-0.11 0.04,-0.19 0.13,-0.23 0.19,-0.08 0.45,-0.15 0.8,-0.22 0.35,-0.07 0.73,-0.13 1.15,-0.19 0.42,-0.06 0.84,-0.1 1.26,-0.13 0.42,-0.03 0.79,-0.05 1.12,-0.05 0.94,0 1.83,0.16 2.66,0.47 0.84,0.32 1.58,0.76 2.22,1.35 0.65,0.58 1.15,1.28 1.52,2.11 0.37,0.82 0.56,1.74 0.56,2.76 0,1.02 -0.16,1.91 -0.49,2.68 -0.33,0.77 -0.76,1.43 -1.3,1.96 -0.54,0.53 -1.14,0.96 -1.81,1.27 -0.67,0.31 -1.34,0.53 -2.03,0.66 -0.64,0.11 -1.26,0.19 -1.85,0.23 -0.59,0.04 -1.17,0.06 -1.75,0.07 h -0.26 c -0.68,0 -1.17,-0.02 -1.49,-0.07 z m 6.17,-1.68 c 1.18,-0.53 2.06,-1.24 2.63,-2.13 0.56,-0.89 0.85,-1.89 0.85,-3.01 0,-0.88 -0.17,-1.66 -0.5,-2.34 -0.33,-0.69 -0.78,-1.26 -1.33,-1.73 -0.55,-0.47 -1.17,-0.83 -1.85,-1.07 -0.68,-0.24 -1.36,-0.37 -2.05,-0.37 -0.8,0 -1.57,0.1 -2.3,0.3 v 11.2 c 1.85,-0.04 3.36,-0.32 4.55,-0.85 z"
         id="path16"
         style="fill:#ffffff" />
      <path
         class="st1"
         d="m 337.82,84.05 c -0.03,0.46 -0.06,0.94 -0.07,1.45 -0.02,0.51 -0.04,0.98 -0.05,1.42 -0.01,0.44 -0.02,0.77 -0.02,1 0,0.18 0.01,0.44 0.03,0.78 0.02,0.34 0.07,0.71 0.17,1.1 0.1,0.39 0.25,0.75 0.46,1.09 0.03,0.05 0.04,0.09 0.04,0.11 0,0.14 -0.08,0.3 -0.25,0.5 -0.17,0.19 -0.36,0.29 -0.57,0.29 -0.19,0 -0.35,-0.14 -0.5,-0.41 -0.15,-0.27 -0.26,-0.6 -0.34,-0.98 -0.08,-0.38 -0.14,-0.75 -0.18,-1.08 -0.46,0.88 -1.03,1.52 -1.69,1.94 -0.66,0.42 -1.34,0.62 -2.04,0.62 -0.92,0 -1.65,-0.31 -2.2,-0.93 -0.55,-0.62 -0.83,-1.52 -0.83,-2.7 0,-0.8 0.13,-1.56 0.4,-2.26 0.26,-0.71 0.62,-1.33 1.06,-1.86 0.45,-0.54 0.94,-0.96 1.5,-1.27 0.56,-0.31 1.12,-0.46 1.7,-0.46 0.44,0 0.84,0.1 1.2,0.29 0.36,0.19 0.65,0.51 0.87,0.95 v -1.03 c 0,-0.13 0.13,-0.19 0.39,-0.19 0.21,0 0.44,0.05 0.68,0.13 0.24,0.09 0.36,0.21 0.36,0.36 v 0.04 c -0.04,0.28 -0.07,0.64 -0.1,1.1 z m -1.66,0.52 c 0,0 -0.09,-0.02 -0.13,-0.08 -0.22,-0.36 -0.46,-0.62 -0.75,-0.77 -0.28,-0.15 -0.57,-0.23 -0.85,-0.23 -0.39,0 -0.78,0.11 -1.18,0.35 -0.39,0.23 -0.76,0.56 -1.09,0.98 -0.33,0.42 -0.6,0.92 -0.8,1.49 -0.2,0.57 -0.3,1.19 -0.3,1.85 0,0.95 0.16,1.63 0.49,2.01 0.32,0.39 0.74,0.58 1.24,0.58 0.6,0 1.17,-0.2 1.71,-0.59 0.54,-0.4 0.99,-0.94 1.35,-1.65 0.36,-0.7 0.56,-1.52 0.59,-2.45 0.01,-0.17 0.02,-0.42 0.02,-0.74 0,-0.32 0,-0.63 0.02,-0.94 -0.11,0.11 -0.22,0.17 -0.32,0.17 z"
         id="path17"
         style="fill:#ffffff" />
      <path
         class="st1"
         d="m 341.3,84.06 c -0.01,-0.26 -0.02,-0.53 -0.03,-0.81 0,-0.28 -0.01,-0.48 -0.01,-0.62 0,-0.13 0.13,-0.19 0.38,-0.19 0.2,0 0.42,0.05 0.65,0.14 0.23,0.1 0.35,0.22 0.35,0.39 0,0.13 0,0.26 -0.03,0.41 -0.03,0.15 -0.03,0.33 -0.03,0.55 0.25,-0.41 0.61,-0.77 1.07,-1.08 0.46,-0.3 1.02,-0.45 1.67,-0.45 0.38,0 0.73,0.07 1.06,0.19 0.33,0.12 0.59,0.27 0.8,0.45 0.21,0.17 0.31,0.34 0.31,0.49 0,0.2 -0.07,0.42 -0.22,0.64 -0.15,0.22 -0.3,0.34 -0.46,0.34 -0.1,0 -0.19,-0.06 -0.26,-0.19 -0.13,-0.24 -0.32,-0.41 -0.59,-0.53 -0.27,-0.11 -0.5,-0.17 -0.69,-0.17 -0.53,0 -1.02,0.16 -1.46,0.49 -0.45,0.33 -0.78,0.83 -0.99,1.51 -0.09,0.28 -0.15,0.59 -0.19,0.92 -0.04,0.34 -0.06,0.75 -0.07,1.23 -0.01,0.48 0,1.07 0,1.79 0,0.39 0.01,0.77 0.05,1.13 0.03,0.36 0.05,0.65 0.05,0.87 0,0.13 -0.13,0.19 -0.38,0.19 -0.2,0 -0.42,-0.05 -0.65,-0.14 -0.23,-0.09 -0.35,-0.22 -0.35,-0.39 0,-0.1 0,-0.26 0.01,-0.5 0,-0.23 0.01,-0.46 0.02,-0.69 0,-0.23 0,-0.38 0,-0.47 v -4.91 c 0,-0.13 0,-0.32 -0.02,-0.59 z"
         id="path18"
         style="fill:#ffffff" />
      <path
         class="st1"
         d="m 349.36,79.86 c -0.01,-0.26 -0.02,-0.53 -0.03,-0.81 0,-0.27 0,-0.48 0,-0.62 0,-0.13 0.13,-0.19 0.38,-0.19 0.2,0 0.42,0.05 0.65,0.14 0.23,0.09 0.35,0.22 0.35,0.39 0,0.1 0,0.25 -0.02,0.46 -0.01,0.21 -0.03,0.42 -0.04,0.65 -0.01,0.23 -0.02,0.41 -0.02,0.56 v 5.2 l 3.54,-2.45 c 0.16,-0.11 0.31,-0.23 0.44,-0.36 0.13,-0.13 0.23,-0.23 0.31,-0.3 0.05,-0.06 0.15,-0.1 0.3,-0.1 0.15,0 0.31,0.03 0.49,0.1 0.18,0.06 0.33,0.14 0.45,0.23 0.13,0.1 0.19,0.19 0.19,0.27 0,0.05 -0.03,0.09 -0.1,0.13 -0.26,0.18 -0.52,0.33 -0.77,0.48 -0.25,0.15 -0.46,0.27 -0.62,0.39 l -2.86,2 c 0.36,0.35 0.79,0.79 1.27,1.3 0.48,0.51 0.97,1.03 1.48,1.54 0.5,0.51 0.95,0.97 1.34,1.37 0.14,0.13 0.3,0.26 0.49,0.39 0.19,0.14 0.38,0.25 0.58,0.34 0.06,0.03 0.1,0.07 0.1,0.13 0,0.09 -0.06,0.19 -0.18,0.29 -0.12,0.1 -0.26,0.2 -0.42,0.28 -0.16,0.08 -0.31,0.12 -0.45,0.12 -0.09,0 -0.15,-0.02 -0.19,-0.06 -0.16,-0.13 -0.33,-0.26 -0.51,-0.41 -0.17,-0.15 -0.33,-0.29 -0.47,-0.43 -0.25,-0.26 -0.54,-0.58 -0.88,-0.94 -0.34,-0.36 -0.69,-0.75 -1.05,-1.15 -0.36,-0.4 -0.72,-0.79 -1.07,-1.16 -0.35,-0.37 -0.67,-0.69 -0.94,-0.97 l -0.45,0.28 v 2.58 c 0,0.07 0,0.25 0.03,0.51 0.02,0.26 0.04,0.54 0.05,0.83 0.01,0.29 0.02,0.51 0.02,0.66 0,0.13 -0.13,0.19 -0.38,0.19 -0.2,0 -0.42,-0.05 -0.65,-0.14 -0.23,-0.09 -0.35,-0.22 -0.35,-0.39 0,-0.1 0,-0.26 0,-0.5 0,-0.23 0.01,-0.46 0.02,-0.69 0,-0.23 0,-0.38 0,-0.47 v -9.11 c 0,-0.13 0,-0.32 -0.02,-0.58 z"
         id="path19"
         style="fill:#ffffff" />
      <path
         class="st1"
         d="m 371.67,84.83 c -0.2,0 -0.39,0 -0.56,0.02 l -3.96,0.23 v 4.46 c 0,0.15 0,0.36 0.02,0.62 0.01,0.26 0.02,0.52 0.03,0.77 0,0.25 0,0.45 0,0.6 0,0.13 -0.13,0.19 -0.39,0.19 -0.2,0 -0.42,-0.05 -0.66,-0.14 -0.24,-0.09 -0.36,-0.22 -0.36,-0.38 0,-0.1 0,-0.26 0.01,-0.46 0,-0.21 0.01,-0.42 0.02,-0.65 0,-0.23 0,-0.41 0,-0.56 v -4.44 c -0.14,-0.08 -0.26,-0.22 -0.36,-0.42 -0.1,-0.2 -0.15,-0.37 -0.15,-0.51 0,-0.14 0.05,-0.21 0.15,-0.21 h 0.04 c 0,0 0.1,0.02 0.16,0.03 0.06,0 0.11,0 0.16,0 v -4.38 c 0,-0.18 -0.01,-0.35 -0.04,-0.5 -0.01,-0.11 -0.02,-0.2 -0.03,-0.27 0,-0.07 0,-0.13 0,-0.18 0,-0.13 0.03,-0.2 0.09,-0.23 0.06,-0.03 0.12,-0.04 0.17,-0.04 0.18,0 0.38,0.04 0.62,0.11 0.24,0.07 0.36,0.12 0.38,0.13 l 5.1,-0.34 c 0.29,-0.03 0.59,-0.06 0.91,-0.1 0.32,-0.04 0.54,-0.06 0.65,-0.06 0.18,0 0.33,0.11 0.45,0.33 0.13,0.22 0.19,0.42 0.19,0.61 0,0.22 -0.08,0.32 -0.25,0.32 h -1.37 c -0.2,0 -0.39,0 -0.57,0.02 l -4.99,0.34 v 4.2 l 3.94,-0.25 c 0.29,-0.03 0.59,-0.06 0.91,-0.1 0.32,-0.04 0.54,-0.06 0.65,-0.06 0.18,0 0.33,0.11 0.45,0.33 0.13,0.22 0.19,0.42 0.19,0.61 0,0.22 -0.08,0.32 -0.25,0.32 h -1.37 z"
         id="path20"
         style="fill:#ffffff" />
      <path
         class="st1"
         d="m 377.94,80.19 c -0.16,0.17 -0.39,0.25 -0.68,0.25 -0.24,0 -0.45,-0.12 -0.65,-0.37 -0.19,-0.25 -0.29,-0.5 -0.29,-0.76 0,-0.25 0.08,-0.46 0.24,-0.64 0.16,-0.18 0.39,-0.26 0.71,-0.26 0.23,0 0.44,0.13 0.63,0.38 0.19,0.25 0.29,0.52 0.29,0.79 0,0.24 -0.08,0.44 -0.25,0.61 z m -1.33,3.85 c -0.01,-0.26 -0.02,-0.53 -0.03,-0.81 0,-0.28 -0.01,-0.48 -0.01,-0.62 0,-0.11 0.12,-0.17 0.36,-0.17 0.21,0 0.44,0.05 0.68,0.14 0.24,0.1 0.36,0.22 0.36,0.37 0,0.1 0,0.25 0,0.46 0,0.21 -0.01,0.42 -0.02,0.65 0,0.23 -0.01,0.41 -0.01,0.57 v 4.95 c 0,0.07 0,0.25 0.02,0.51 0.01,0.26 0.02,0.54 0.03,0.83 0,0.29 0.01,0.51 0.01,0.66 0,0.11 -0.12,0.17 -0.36,0.17 -0.2,0 -0.42,-0.05 -0.67,-0.14 -0.25,-0.09 -0.37,-0.22 -0.37,-0.37 0,-0.1 0,-0.26 0.01,-0.5 0,-0.23 0.01,-0.46 0.02,-0.69 0,-0.23 0.01,-0.38 0.01,-0.47 v -4.95 c 0,-0.13 0,-0.32 -0.02,-0.59 z"
         id="path21"
         style="fill:#ffffff" />
      <path
         class="st1"
         d="m 382.14,88.05 c 0,0.82 0.21,1.48 0.63,1.98 0.42,0.5 0.94,0.75 1.57,0.75 0.8,0 1.54,-0.13 2.21,-0.38 0.67,-0.26 1.26,-0.66 1.76,-1.2 0.09,-0.1 0.17,-0.17 0.25,-0.22 0.08,-0.05 0.14,-0.07 0.19,-0.07 0.13,0 0.19,0.07 0.19,0.23 0,0.11 -0.09,0.31 -0.27,0.6 -0.18,0.29 -0.46,0.6 -0.84,0.93 -0.38,0.33 -0.85,0.62 -1.43,0.86 -0.58,0.24 -1.26,0.36 -2.05,0.36 -0.64,0 -1.22,-0.16 -1.74,-0.48 -0.52,-0.32 -0.93,-0.78 -1.23,-1.38 -0.3,-0.6 -0.45,-1.32 -0.45,-2.15 v -0.26 c -0.11,-0.09 -0.21,-0.19 -0.28,-0.3 -0.08,-0.11 -0.11,-0.22 -0.11,-0.3 0,-0.16 0.12,-0.25 0.36,-0.25 0.01,0 0.04,0 0.08,0 0.04,0 0.07,-0.01 0.08,-0.01 0.09,-0.45 0.27,-0.93 0.54,-1.43 0.27,-0.5 0.61,-0.98 1.03,-1.42 0.42,-0.44 0.89,-0.81 1.42,-1.08 0.53,-0.28 1.11,-0.42 1.72,-0.42 0.78,0 1.4,0.14 1.86,0.41 0.46,0.27 0.78,0.62 0.98,1.04 0.2,0.42 0.29,0.85 0.29,1.31 0,0.43 -0.04,0.77 -0.1,1.02 -0.07,0.25 -0.23,0.45 -0.48,0.61 -0.25,0.16 -0.66,0.32 -1.22,0.5 -0.57,0.18 -1.24,0.32 -2.03,0.42 -0.78,0.11 -1.67,0.16 -2.67,0.16 h -0.25 v 0.19 z m 2.86,-1.4 c 0.63,-0.11 1.15,-0.22 1.56,-0.33 0.45,-0.14 0.74,-0.29 0.87,-0.45 0.13,-0.16 0.2,-0.41 0.2,-0.74 0,-1.09 -0.63,-1.64 -1.9,-1.64 -0.47,0 -0.89,0.11 -1.28,0.32 -0.39,0.22 -0.73,0.49 -1.03,0.83 -0.29,0.34 -0.54,0.7 -0.74,1.08 -0.19,0.38 -0.33,0.74 -0.4,1.08 h 0.38 c 0.93,0 1.71,-0.05 2.34,-0.16 z"
         id="path22"
         style="fill:#ffffff" />
      <path
         class="st1"
         d="m 391.78,79.86 c -0.01,-0.26 -0.02,-0.53 -0.03,-0.81 0,-0.27 -0.01,-0.48 -0.01,-0.62 0,-0.06 0.04,-0.11 0.11,-0.14 0.07,-0.03 0.16,-0.05 0.26,-0.05 0.21,0 0.44,0.05 0.67,0.14 0.23,0.09 0.35,0.22 0.35,0.39 0,0.1 0,0.25 0,0.46 0,0.21 -0.01,0.42 -0.02,0.65 0,0.23 -0.01,0.41 -0.01,0.56 v 9.13 c 0,0.07 0,0.25 0.02,0.51 0.01,0.26 0.02,0.54 0.03,0.83 0,0.29 0.01,0.51 0.01,0.66 0,0.06 -0.04,0.11 -0.11,0.14 -0.07,0.03 -0.16,0.05 -0.26,0.05 -0.2,0 -0.42,-0.05 -0.66,-0.14 -0.24,-0.09 -0.36,-0.22 -0.36,-0.39 0,-0.1 0,-0.26 0.01,-0.5 0,-0.23 0.01,-0.46 0.02,-0.69 0,-0.23 0.01,-0.38 0.01,-0.47 v -9.13 c 0,-0.13 0,-0.32 -0.02,-0.58 z"
         id="path23"
         style="fill:#ffffff" />
      <path
         class="st1"
         d="m 402.74,79.26 c -0.02,-0.36 -0.04,-0.65 -0.04,-0.87 0,-0.06 0.04,-0.11 0.11,-0.14 0.08,-0.03 0.16,-0.05 0.26,-0.05 0.2,0 0.41,0.05 0.64,0.14 0.23,0.09 0.34,0.22 0.34,0.39 0,0.15 0,0.39 -0.02,0.71 -0.01,0.32 -0.02,0.64 -0.02,0.97 v 7.66 c 0,0.54 0.06,1.07 0.17,1.59 0.11,0.52 0.27,0.91 0.47,1.16 0.02,0.05 0.04,0.1 0.04,0.13 0,0.15 -0.09,0.33 -0.26,0.53 -0.18,0.2 -0.36,0.3 -0.57,0.3 -0.15,0 -0.29,-0.1 -0.41,-0.29 -0.13,-0.2 -0.23,-0.43 -0.32,-0.71 -0.09,-0.27 -0.16,-0.55 -0.22,-0.82 -0.06,-0.27 -0.08,-0.48 -0.08,-0.63 -0.54,0.9 -1.12,1.56 -1.73,1.96 -0.62,0.4 -1.29,0.6 -2.03,0.6 -0.92,0 -1.66,-0.33 -2.23,-1 -0.57,-0.67 -0.86,-1.61 -0.86,-2.84 0,-0.74 0.13,-1.45 0.39,-2.13 0.26,-0.68 0.61,-1.28 1.05,-1.81 0.44,-0.53 0.94,-0.94 1.5,-1.25 0.56,-0.31 1.15,-0.46 1.76,-0.46 0.48,0 0.9,0.09 1.26,0.27 0.36,0.18 0.65,0.42 0.85,0.71 v -2.99 c 0,-0.39 -0.01,-0.77 -0.04,-1.13 z m -0.15,5.19 c -0.06,0 -0.12,-0.03 -0.17,-0.09 -0.19,-0.26 -0.44,-0.47 -0.76,-0.63 -0.32,-0.16 -0.65,-0.23 -0.97,-0.23 -0.47,0 -0.9,0.13 -1.32,0.38 -0.41,0.26 -0.78,0.61 -1.09,1.05 -0.31,0.44 -0.56,0.92 -0.74,1.45 -0.18,0.53 -0.27,1.07 -0.27,1.62 0,0.91 0.17,1.61 0.5,2.07 0.33,0.46 0.77,0.69 1.31,0.69 0.39,0 0.8,-0.11 1.23,-0.35 0.43,-0.23 0.84,-0.55 1.21,-0.96 0.37,-0.41 0.68,-0.88 0.91,-1.4 0.23,-0.53 0.35,-1.09 0.35,-1.69 v -1.98 c 0,0 -0.11,0.07 -0.19,0.07 z"
         id="path24"
         style="fill:#ffffff" />
      <path
         class="st1"
         d="m 420.18,84.83 c -0.2,0 -0.39,0 -0.56,0.02 l -3.96,0.23 v 4.46 c 0,0.15 0,0.36 0.02,0.62 0.01,0.26 0.02,0.52 0.03,0.77 0,0.25 0,0.45 0,0.6 0,0.13 -0.13,0.19 -0.39,0.19 -0.2,0 -0.42,-0.05 -0.66,-0.14 -0.24,-0.09 -0.36,-0.22 -0.36,-0.38 0,-0.1 0,-0.26 0.01,-0.46 0,-0.21 0.01,-0.42 0.02,-0.65 0,-0.23 0,-0.41 0,-0.56 v -4.44 c -0.14,-0.08 -0.26,-0.22 -0.36,-0.42 -0.1,-0.2 -0.15,-0.37 -0.15,-0.51 0,-0.14 0.05,-0.21 0.15,-0.21 h 0.04 c 0,0 0.1,0.02 0.16,0.03 0.06,0 0.11,0 0.16,0 v -4.38 c 0,-0.18 -0.01,-0.35 -0.04,-0.5 -0.01,-0.11 -0.02,-0.2 -0.03,-0.27 0,-0.07 0,-0.13 0,-0.18 0,-0.13 0.03,-0.2 0.09,-0.23 0.06,-0.03 0.12,-0.04 0.17,-0.04 0.18,0 0.38,0.04 0.62,0.11 0.24,0.07 0.36,0.12 0.38,0.13 l 5.1,-0.34 c 0.29,-0.03 0.59,-0.06 0.91,-0.1 0.32,-0.04 0.54,-0.06 0.65,-0.06 0.18,0 0.33,0.11 0.45,0.33 0.13,0.22 0.19,0.42 0.19,0.61 0,0.22 -0.08,0.32 -0.25,0.32 h -1.37 c -0.2,0 -0.39,0 -0.57,0.02 l -4.99,0.34 v 4.2 l 3.94,-0.25 c 0.29,-0.03 0.59,-0.06 0.91,-0.1 0.32,-0.04 0.54,-0.06 0.65,-0.06 0.18,0 0.33,0.11 0.45,0.33 0.13,0.22 0.19,0.42 0.19,0.61 0,0.22 -0.08,0.32 -0.25,0.32 h -1.37 z"
         id="path25"
         style="fill:#ffffff" />
      <path
         class="st1"
         d="m 425.11,79.86 c -0.01,-0.26 -0.02,-0.53 -0.03,-0.81 0,-0.27 -0.01,-0.48 -0.01,-0.62 0,-0.06 0.04,-0.11 0.11,-0.14 0.07,-0.03 0.16,-0.05 0.26,-0.05 0.21,0 0.44,0.05 0.67,0.14 0.23,0.09 0.35,0.22 0.35,0.39 0,0.1 0,0.25 0,0.46 0,0.21 -0.01,0.42 -0.02,0.65 0,0.23 -0.01,0.41 -0.01,0.56 v 9.13 c 0,0.07 0,0.25 0.02,0.51 0.01,0.26 0.02,0.54 0.03,0.83 0,0.29 0.01,0.51 0.01,0.66 0,0.06 -0.04,0.11 -0.11,0.14 -0.07,0.03 -0.16,0.05 -0.26,0.05 -0.2,0 -0.42,-0.05 -0.66,-0.14 -0.24,-0.09 -0.36,-0.22 -0.36,-0.39 0,-0.1 0,-0.26 0.01,-0.5 0,-0.23 0.01,-0.46 0.02,-0.69 0,-0.23 0.01,-0.38 0.01,-0.47 v -9.13 c 0,-0.13 0,-0.32 -0.02,-0.58 z"
         id="path26"
         style="fill:#ffffff" />
      <path
         class="st1"
         d="m 432.81,82.65 c 0.35,-0.16 0.79,-0.25 1.32,-0.25 0.72,0 1.35,0.18 1.9,0.55 0.55,0.36 0.98,0.88 1.29,1.55 0.31,0.67 0.46,1.48 0.46,2.44 0,0.6 -0.1,1.2 -0.29,1.78 -0.2,0.58 -0.48,1.12 -0.87,1.6 -0.38,0.48 -0.85,0.87 -1.41,1.15 -0.56,0.28 -1.2,0.42 -1.93,0.42 -1.26,0 -2.23,-0.38 -2.93,-1.14 -0.7,-0.76 -1.05,-1.79 -1.05,-3.1 0,-0.55 0.09,-1.1 0.27,-1.65 0.18,-0.55 0.4,-1.05 0.66,-1.5 0.26,-0.45 0.51,-0.82 0.76,-1.09 0.25,-0.27 0.44,-0.41 0.58,-0.41 0.13,0 0.23,0.06 0.32,0.17 0.25,-0.19 0.55,-0.36 0.9,-0.53 z m 2.12,7.59 c 0.48,-0.33 0.87,-0.79 1.16,-1.36 0.29,-0.57 0.43,-1.23 0.43,-1.94 0,-1.04 -0.2,-1.87 -0.61,-2.49 -0.41,-0.61 -1.04,-0.92 -1.89,-0.92 -0.5,0 -0.96,0.12 -1.39,0.36 -0.42,0.24 -0.78,0.56 -1.09,0.96 -0.31,0.4 -0.55,0.84 -0.72,1.33 -0.17,0.48 -0.25,0.97 -0.25,1.46 0,1.03 0.23,1.8 0.71,2.33 0.47,0.52 1.14,0.78 2.01,0.78 0.62,0 1.16,-0.17 1.65,-0.5 z"
         id="path27"
         style="fill:#ffffff" />
      <path
         class="st1"
         d="m 450.59,83.31 c 0.05,-0.23 0.1,-0.45 0.15,-0.68 0.04,-0.14 0.18,-0.21 0.42,-0.21 0.21,0 0.42,0.05 0.64,0.14 0.21,0.1 0.32,0.21 0.32,0.35 0,0.04 0,0.07 -0.02,0.1 -0.09,0.2 -0.18,0.42 -0.27,0.66 -0.09,0.24 -0.17,0.44 -0.23,0.6 l -2.13,6.06 c -0.05,0.15 -0.1,0.32 -0.16,0.52 -0.06,0.19 -0.11,0.4 -0.18,0.61 -0.05,0.16 -0.13,0.28 -0.23,0.34 -0.1,0.06 -0.22,0.1 -0.36,0.1 -0.16,0 -0.33,-0.04 -0.5,-0.11 -0.17,-0.07 -0.29,-0.16 -0.37,-0.25 -0.1,-0.1 -0.16,-0.23 -0.19,-0.38 -0.03,-0.15 -0.06,-0.31 -0.11,-0.47 l -1.71,-6.04 -1.94,5.68 c -0.07,0.22 -0.13,0.41 -0.18,0.57 -0.04,0.17 -0.1,0.36 -0.16,0.56 -0.05,0.16 -0.13,0.28 -0.23,0.34 -0.1,0.06 -0.22,0.1 -0.34,0.1 -0.15,0 -0.3,-0.04 -0.46,-0.11 -0.16,-0.07 -0.27,-0.16 -0.35,-0.25 -0.1,-0.1 -0.16,-0.21 -0.19,-0.32 -0.02,-0.11 -0.08,-0.29 -0.15,-0.53 l -1.92,-6.65 c -0.05,-0.14 -0.11,-0.31 -0.19,-0.52 -0.08,-0.21 -0.15,-0.41 -0.23,-0.59 -0.01,-0.01 -0.02,-0.04 -0.02,-0.08 0,-0.1 0.07,-0.17 0.2,-0.23 0.13,-0.05 0.28,-0.07 0.46,-0.07 0.19,0 0.37,0.03 0.56,0.09 0.18,0.07 0.28,0.16 0.29,0.3 0.02,0.13 0.05,0.28 0.08,0.45 0.02,0.18 0.06,0.33 0.1,0.47 l 1.62,6.1 2.03,-5.84 c 0.06,-0.19 0.1,-0.38 0.12,-0.57 0.02,-0.2 0.04,-0.39 0.07,-0.59 0.01,-0.08 0.07,-0.13 0.16,-0.17 0.1,-0.04 0.2,-0.06 0.33,-0.06 0.25,0 0.51,0.04 0.76,0.13 0.26,0.09 0.39,0.19 0.41,0.3 0.02,0.14 0.04,0.27 0.06,0.41 0.01,0.13 0.04,0.26 0.08,0.39 l 1.79,6.01 2.01,-6.06 c 0.06,-0.18 0.12,-0.38 0.17,-0.6 z"
         id="path28"
         style="fill:#ffffff" />
    </g>
  </g>
  <path
     id="path66"
     style="color:#000000;overflow:visible;fill:#ffffff;stroke-width:6"
     d="m 66.5,19.298828 a 46.911098,46.911098 0 0 0 -12.111328,1.589844 l 6.18164,6.18164 h 2.689454 l 0.08984,0.08984 v 85.855468 a 46.911098,46.911098 0 0 0 3.150391,0.10547 46.911098,46.911098 0 0 0 3.150391,-0.10547 v -85.845702 l 0.08984,-0.08984 h 2.689454 l 6.189453,-6.189453 a 46.911098,46.911098 0 0 0 -12.119141,-1.591797 z m 0,44.91211 c 1.11,0 2,0.89 2,2 0,1.109999 -0.89,2 -2,2 -1.11,0 -2,-0.890001 -2,-2 0,-1.110001 0.9,-2 2,-2 z" />
  <path
     id="path32"
     style="color:#000000;overflow:visible;fill:#ffffff;stroke-width:6"
     d="m 94.074219,73.796875 c -0.292913,0.01111 -0.553516,0.211406 -0.634766,0.503906 -0.1,0.37 0.120469,0.739844 0.480469,0.839844 l 8.150388,2.179687 c 0.06,0.02 0.11969,0.01953 0.17969,0.01953 0.3,0 0.58016,-0.209766 0.66016,-0.509766 0.1,-0.37 -0.12047,-0.739844 -0.48047,-0.839844 l -8.150393,-2.179687 v 0.0098 c -0.06937,-0.01875 -0.137483,-0.026 -0.205078,-0.02344 z" />
  <path
     id="path42"
     style="color:#000000;overflow:visible;fill:#ffffff;stroke-width:6"
     d="m 94.074219,73.796875 c 0.06759,-0.0026 0.135703,0.0047 0.205078,0.02344 v -0.0098 l 8.150393,2.179687 c 0.36,0.1 0.58047,0.469844 0.48047,0.839844 -0.08,0.3 -0.36016,0.509766 -0.66016,0.509766 -0.06,0 -0.11969,4.69e-4 -0.17969,-0.01953 l -8.150388,-2.179687 c -0.36,-0.1 -0.580469,-0.469844 -0.480469,-0.839844 0.08125,-0.2925 0.341853,-0.492798 0.634766,-0.503906 z" />
  <path
     id="path41"
     style="color:#000000;overflow:visible;fill:#ffffff;stroke-width:6"
     d="m 81.052734,70.376953 c -0.292912,0.01111 -0.551562,0.211406 -0.632812,0.503906 -0.1,0.37 0.120469,0.739844 0.480469,0.839844 l 8.820312,2.359375 c 0.06,0.02 0.119688,0.01953 0.179688,0.01953 0.3,0 0.580156,-0.209765 0.660156,-0.509765 0.1,-0.37 -0.120469,-0.739844 -0.480469,-0.839844 l -8.820312,-2.359375 v 0.0098 c -0.06937,-0.01875 -0.139436,-0.026 -0.207032,-0.02344 z" />
  <path
     id="path40"
     style="color:#000000;overflow:visible;fill:#ffffff;stroke-width:6"
     d="m 96.890625,65.529297 c -0.37,0 -0.679687,0.31164 -0.679687,0.681641 0,0.37 0.299687,0.679687 0.679687,0.679687 h 6.839845 c 0.37,0 0.67969,-0.299688 0.67969,-0.679687 0,-0.370001 -0.29969,-0.681641 -0.67969,-0.681641 z" />
  <path
     id="path39"
     style="color:#000000;overflow:visible;fill:#ffffff;stroke-width:6"
     d="m 81.939453,65.529297 c -0.37,0 -0.679687,0.31164 -0.679687,0.681641 0,0.37 0.299687,0.679687 0.679687,0.679687 h 9 c 0.37,0 0.679688,-0.299688 0.679688,-0.679687 0,-0.370001 -0.299688,-0.681641 -0.679688,-0.681641 z" />
  <path
     id="path38"
     style="color:#000000;overflow:visible;fill:#ffffff;stroke-width:6"
     d="m 89.935547,58.326172 c -0.06759,-0.0026 -0.135703,0.0047 -0.205078,0.02344 l -8.820313,2.361329 v -0.01172 c -0.36,0.1 -0.580468,0.479844 -0.480468,0.839843 0.08,0.31 0.360156,0.511719 0.660156,0.511719 0.06,0 0.119687,-0.0015 0.179687,-0.02148 l 8.820313,-2.359375 c 0.36,-0.1 0.580468,-0.479844 0.480468,-0.839844 -0.08125,-0.2925 -0.341853,-0.492798 -0.634765,-0.503906 z" />
  <path
     id="path37"
     style="color:#000000;overflow:visible;fill:#ffffff;stroke-width:6"
     d="m 102.28711,55.095703 c -0.0676,-0.0026 -0.13766,0.0047 -0.20703,0.02344 l -8.150392,2.18164 v -0.01172 c -0.36,0.1 -0.580469,0.481797 -0.480469,0.841797 0.08,0.31 0.360156,0.509766 0.660156,0.509766 0.06,0 0.119687,-0.0015 0.179687,-0.02148 l 8.150388,-2.179688 c 0.36,-0.1 0.58047,-0.479844 0.48047,-0.839844 -0.0813,-0.2925 -0.3399,-0.492797 -0.63281,-0.503906 z" />
  <path
     id="path36"
     style="color:#000000;overflow:visible;fill:#ffffff;stroke-width:6"
     d="m 104.31836,93.966797 -30.017579,-21.796875 v 7.759766 l 15.09375,27.224612 a 46.911098,46.911098 0 0 0 14.923829,-13.187503 z" />
  <path
     id="path35"
     style="color:#000000;overflow:visible;fill:#ffffff;stroke-width:6"
     d="m 98.552734,31.957031 -24.242187,24.242188 v 4.410156 l 26.447263,-26.447266 a 46.911098,46.911098 0 0 0 -2.205076,-2.205078 z" />
  <path
     id="path43"
     style="color:#000000;overflow:visible;fill:#ffffff;stroke-width:6"
     d="m 38.916016,73.765625 c -0.0676,-0.0026 -0.135703,0.0047 -0.205078,0.02344 l -8.150391,2.181641 c -0.36,0.1 -0.580469,0.479844 -0.480469,0.839844 0.08,0.31 0.360156,0.509765 0.660156,0.509765 0.06,0 0.119688,4.69e-4 0.179688,-0.01953 l 8.15039,-2.18164 v -0.0098 c 0.360001,-0.1 0.580469,-0.479844 0.480469,-0.839844 -0.08125,-0.2925 -0.341853,-0.492798 -0.634765,-0.503906 z" />
  <path
     id="path64"
     style="color:#000000;overflow:visible;fill:#ffffff;stroke-width:6"
     d="m 51.935547,70.355469 c -0.06759,-0.0026 -0.135703,0.0066 -0.205078,0.02539 l -8.820313,2.359375 c -0.36,0.1 -0.580469,0.479844 -0.480468,0.839844 0.08,0.31 0.360156,0.509766 0.660156,0.509766 0.06,0 0.119687,4.68e-4 0.179687,-0.01953 l 8.820313,-2.359374 v -0.01172 c 0.36,-0.1 0.580469,-0.479844 0.480468,-0.839844 -0.08125,-0.2925 -0.341853,-0.492798 -0.634765,-0.503907 z" />
  <path
     id="path63"
     style="color:#000000;overflow:visible;fill:#ffffff;stroke-width:6"
     d="m 42.050781,65.529297 c -0.37,0 -0.68164,0.301641 -0.68164,0.681641 0,0.37 0.30164,0.679687 0.68164,0.679687 h 9 c 0.37,0 0.679688,-0.309687 0.679688,-0.679687 0,-0.370001 -0.299688,-0.681641 -0.679688,-0.681641 z" />
  <path
     id="path62"
     style="color:#000000;overflow:visible;fill:#ffffff;stroke-width:6"
     d="m 29.269531,65.529297 c -0.37,0 -0.679687,0.301641 -0.679687,0.681641 0,0.37 0.299687,0.679687 0.679687,0.679687 h 6.839844 c 0.37,0 0.679687,-0.309687 0.679687,-0.679687 0,-0.370001 -0.299687,-0.681641 -0.679687,-0.681641 z" />
  <path
     id="path60"
     style="color:#000000;overflow:visible;fill:#ffffff;stroke-width:6"
     d="m 43.064453,58.326172 c -0.292912,0.01111 -0.553515,0.211406 -0.634765,0.503906 -0.100001,0.37 0.120468,0.739844 0.480468,0.839844 l 8.820313,2.359375 c 0.06,0.02 0.119687,0.02148 0.179687,0.02148 v 0.0098 c 0.3,0 0.580157,-0.209766 0.660156,-0.509766 0.100001,-0.37 -0.120468,-0.739843 -0.480468,-0.839843 l -8.820313,-2.361329 c -0.06938,-0.01875 -0.137483,-0.026 -0.205078,-0.02344 z" />
  <path
     id="path59"
     style="color:#000000;overflow:visible;fill:#ffffff;stroke-width:6"
     d="m 43.064453,58.326172 c 0.06759,-0.0026 0.135703,0.0047 0.205078,0.02344 l 8.820313,2.361329 c 0.36,0.1 0.580469,0.469843 0.480468,0.839843 -0.08,0.3 -0.360156,0.509766 -0.660156,0.509766 v -0.0098 c -0.06,0 -0.119687,-0.0015 -0.179687,-0.02148 l -8.820313,-2.359375 c -0.36,-0.1 -0.580469,-0.469844 -0.480468,-0.839844 0.08125,-0.2925 0.341853,-0.492798 0.634765,-0.503906 z" />
  <path
     id="path58"
     style="color:#000000;overflow:visible;fill:#ffffff;stroke-width:6"
     d="m 30.724609,55.095703 c -0.292912,0.01111 -0.553515,0.211406 -0.634765,0.503906 -0.1,0.37 0.120469,0.739844 0.480468,0.839844 l 8.150391,2.179688 c 0.06,0.02 0.119688,0.02148 0.179688,0.02148 v 0.0098 c 0.3,0 0.580156,-0.209766 0.660156,-0.509766 0.1,-0.37 -0.120469,-0.739844 -0.480469,-0.839844 l -8.15039,-2.18164 c -0.06938,-0.01875 -0.137483,-0.026 -0.205079,-0.02344 z" />
  <path
     id="path57"
     style="color:#000000;overflow:visible;fill:#ffffff;stroke-width:6"
     d="m 32.242188,34.162109 26.447265,26.447266 v -4.410156 l -24.242187,-24.242188 a 46.911098,46.911098 0 0 0 -2.205078,2.205078 z" />
  <path
     id="path56"
     style="color:#000000;overflow:visible;fill:#ffffff;stroke-width:6"
     d="m 43.601562,107.15234 15.097657,-27.232418 v -7.759766 l -30.021485,21.798828 a 46.911098,46.911098 0 0 0 14.923828,13.193356 z" />
  <circle
     style="color:#000000;overflow:visible;fill:none;fill-opacity:1;stroke:#ffffff;stroke-width:6.37554;stroke-opacity:1"
     id="path67"
     cx="66.528763"
     cy="66.219841"
     r="49.790676" />
</svg>
